<svg xmlns="http://www.w3.org/2000/svg" width="67.322" height="44.999" viewBox="0 0 67.322 44.999"><g transform="translate(0.001 -84.886)"><path d="M35.259,84.886a22.5,22.5,0,1,0,22.5,22.5A22.525,22.525,0,0,0,35.259,84.886Zm0,43.179a20.68,20.68,0,1,1,20.68-20.68,20.7,20.7,0,0,1-20.68,20.68Zm0-35.527a14.847,14.847,0,1,0,14.847,14.847A14.864,14.864,0,0,0,35.259,92.538Zm0,27.875a13.028,13.028,0,1,1,13.028-13.028A13.043,13.043,0,0,1,35.259,120.413Zm.91-21.483a.91.91,0,0,1-.91.91,7.554,7.554,0,0,0-7.546,7.546.91.91,0,1,1-1.82,0,9.376,9.376,0,0,1,9.366-9.365.91.91,0,0,1,.91.91Zm30.7-13.919A.909.909,0,0,0,65.964,85c-4.232,2.383-7.075,9.126-7.075,16.777a29.231,29.231,0,0,0,.644,6.179.909.909,0,0,0,.889.717h.221v17.869a3.339,3.339,0,0,0,6.678,0V85.8A.909.909,0,0,0,66.87,85.011ZM65.5,87.592v19.265H61.167a27.754,27.754,0,0,1-.458-5.076C60.709,95.775,62.621,90.267,65.5,87.592Zm-1.519,40.473a1.521,1.521,0,0,1-1.519-1.519V108.677H65.5v17.869a1.521,1.521,0,0,1-1.519,1.519ZM13.071,94.444v-6.1a.91.91,0,1,0-1.82,0v6.1a4.716,4.716,0,0,1-9.433,0v-6.1a.91.91,0,1,0-1.82,0v6.1a6.533,6.533,0,0,0,3.2,5.608v26.493a3.339,3.339,0,0,0,6.678,0V100.052A6.532,6.532,0,0,0,13.071,94.444Zm-5.017,32.1a1.519,1.519,0,0,1-3.039,0V100.794a6.311,6.311,0,0,0,3.039,0ZM5.625,94.392V85.8a.91.91,0,1,1,1.82,0v8.6a.91.91,0,1,1-1.82,0Zm2.813,0V86.475a.91.91,0,1,1,1.82,0v7.916a.91.91,0,1,1-1.82,0Zm-5.626,0V86.475a.91.91,0,1,1,1.82,0v7.916a.91.91,0,1,1-1.82,0Z" fill="#c3c3c3"/></g></svg>