<svg xmlns="http://www.w3.org/2000/svg" width="48.725" height="44.999" viewBox="0 0 48.725 44.999"><g transform="translate(0 -19.577)"><path d="M45.616,41.647V26.333a6.763,6.763,0,0,0-6.756-6.756H9.67a6.763,6.763,0,0,0-6.756,6.756V41.845A10.463,10.463,0,0,0,0,49.1V60.71a3.866,3.866,0,1,0,7.732,0v-1.2H40.993v1.2a3.866,3.866,0,1,0,7.732,0V49.1A10.467,10.467,0,0,0,45.616,41.647ZM9.67,21.48H38.86a4.858,4.858,0,0,1,4.852,4.852V40.149a10.462,10.462,0,0,0-1.854-.9V36.082a5.094,5.094,0,0,0-5.088-5.088H28.5a5.084,5.084,0,0,0-4.136,2.131,5.084,5.084,0,0,0-4.136-2.131H11.954a5.094,5.094,0,0,0-5.088,5.088v3.165a10.471,10.471,0,0,0-2.048,1.026V26.333A4.858,4.858,0,0,1,9.67,21.48ZM10.5,38.6a10.529,10.529,0,0,0-1.731.144V36.082A3.188,3.188,0,0,1,11.953,32.9h8.273a3.188,3.188,0,0,1,3.185,3.185V38.6H10.5Zm14.814-2.516A3.188,3.188,0,0,1,28.5,32.9h8.273a3.188,3.188,0,0,1,3.185,3.185v2.659a10.53,10.53,0,0,0-1.731-.144H25.314ZM10.5,40.5H38.225a8.606,8.606,0,0,1,8.6,8.6v2.823H37.277a.952.952,0,1,0,0,1.9h9.545v3.783H1.9V53.824H27.76a.952.952,0,1,0,0-1.9H1.9V49.1A8.606,8.606,0,0,1,10.5,40.5ZM5.828,60.71a1.963,1.963,0,1,1-3.925,0v-1.2H5.828Zm39.03,1.963A1.965,1.965,0,0,1,42.9,60.71v-1.2h3.925v1.2a1.965,1.965,0,0,1-1.963,1.963Z" fill="#c3c3c3"/><circle cx="0.952" cy="0.952" r="0.952" transform="translate(31.566 51.92)" fill="#c3c3c3"/></g></svg>