<svg xmlns="http://www.w3.org/2000/svg" width="44.999" height="44.999" viewBox="0 0 44.999 44.999"><g transform="translate(0 0)"><path d="M28.5,217.075V210.25a2.253,2.253,0,0,0-2.25-2.25h-21A2.253,2.253,0,0,0,3,210.25v6.826a3.757,3.757,0,0,0-3,3.674v12a.75.75,0,0,0,.75.75h3a.75.75,0,0,0,.75-.75V230.5H27v2.25a.75.75,0,0,0,.75.75h3a.75.75,0,0,0,.75-.75v-12A3.757,3.757,0,0,0,28.5,217.075Zm-24-6.826a.751.751,0,0,1,.75-.75h21a.751.751,0,0,1,.75.75V217H25.5v-3a2.253,2.253,0,0,0-2.25-2.25h-4.5A2.253,2.253,0,0,0,16.5,214v3H15v-3a2.253,2.253,0,0,0-2.25-2.25H8.25A2.253,2.253,0,0,0,6,214v3H4.5ZM24,214v3H18v-3a.751.751,0,0,1,.75-.75h4.5A.751.751,0,0,1,24,214Zm-10.5,0v3h-6v-3a.751.751,0,0,1,.75-.75h4.5A.751.751,0,0,1,13.5,214ZM30,232H28.5v-2.25a.75.75,0,0,0-.75-.75h-24a.75.75,0,0,0-.75.75V232H1.5v-6H30Zm0-7.5H1.5v-3.75a2.253,2.253,0,0,1,2.25-2.25h24A2.253,2.253,0,0,1,30,220.75Zm14.25-7.5h-10.5a.75.75,0,0,0-.75.75V229h1.5v-4.5h9V229H45V217.75A.75.75,0,0,0,44.249,217Zm-.75,6h-9v-4.5h9Z" transform="translate(0 -188.501)" fill="#b8b8b8"/><path d="M378.248,198.25h3v1.5h-3Zm5.212-9.237-1.5-4.5a.75.75,0,0,0-.712-.512h-3a.75.75,0,0,0-.712.513l-1.5,4.5a.75.75,0,0,0,.712.987H379v2.25h-1.5v1.5H382v-1.5h-1.5V190h2.25a.751.751,0,0,0,.712-.988Zm-5.671-.512,1-3h1.919l1,3Z" transform="translate(-340.749 -166.75)" fill="#b8b8b8"/><path d="M44.555,9.815,22.806.065a.754.754,0,0,0-.613,0L.443,9.815A.751.751,0,0,0,0,10.5v9H1.5V10.985l21-9.413,21,9.414V19.5H45v-9a.751.751,0,0,0-.443-.685Z" transform="translate(0 0)" fill="#b8b8b8"/><path d="M194.427,68.375l-1.48.249a3.692,3.692,0,0,1,.052.625,3.746,3.746,0,1,1-2.5-3.536L191,64.3a5.251,5.251,0,1,0,3.5,4.951,5.3,5.3,0,0,0-.073-.873Z" transform="translate(-166.751 -58)" fill="#b8b8b8"/><path d="M225.094,66.344l-4.72,4.72-.97-.97-1.06,1.06,1.5,1.5a.75.75,0,0,0,1.06,0l5.25-5.25Z" transform="translate(-197.875 -60.124)" fill="#b8b8b8"/></g></svg>