<svg xmlns="http://www.w3.org/2000/svg" width="44.705" height="40.997" viewBox="0 0 44.705 40.997"><g transform="translate(-3.083 -4.714)"><path d="M3.84,45.711H9.514a.757.757,0,0,0,.714-.5l1.986-5.562H38.658l1.986,5.562a.757.757,0,0,0,.713.5H47.03a.757.757,0,0,0,.757-.757V23.908c0-2.81-1.872-5.1-4.173-5.1H41.86V8.547a3.837,3.837,0,0,0-3.833-3.833H12.844A3.838,3.838,0,0,0,9.011,8.547V18.812H7.256c-2.3,0-4.173,2.286-4.173,5.1V44.954A.757.757,0,0,0,3.84,45.711ZM8.98,44.2H4.6v-4.55H10.6ZM4.6,38.131V32.1H46.273v6.033ZM41.891,44.2l-1.625-4.55h6.007V44.2ZM10.525,8.547a2.321,2.321,0,0,1,2.318-2.318H38.027a2.321,2.321,0,0,1,2.318,2.318V18.812H32.583v-5.05a1.731,1.731,0,0,0-1.73-1.73H20.022a1.732,1.732,0,0,0-1.731,1.73v5.05H10.525ZM31.068,18.812H19.8v-5.05a.216.216,0,0,1,.216-.215H30.853a.215.215,0,0,1,.215.215ZM7.256,20.327H43.613c1.466,0,2.658,1.606,2.658,3.581v6.676H4.6V23.908c0-1.975,1.192-3.581,2.659-3.581Z" fill="#b8b8b8"/><path d="M10.192,33.1c0-.682.392-1.151.745-1.151H13.9V30.434H10.937A2.491,2.491,0,0,0,8.677,33.1v1.363h1.515Z" transform="translate(-1.355 -6.239)" fill="#b8b8b8"/></g></svg>