<svg xmlns="http://www.w3.org/2000/svg" width="50.305" height="44.999" viewBox="0 0 50.305 44.999"><g transform="translate(0 -27.006)"><path d="M124.686,409.615a.982.982,0,1,0,.288.7A.99.99,0,0,0,124.686,409.615Z" transform="translate(-110.923 -344.757)" fill="#c3c3c3"/><path d="M49.323,56.317H46.375V53.91h2.941a.983.983,0,0,0,.966-1.162l-1.13-6.075a.983.983,0,0,0-.966-.8H42.6a.983.983,0,0,0-.966.8L40.5,52.748a.983.983,0,0,0,.966,1.162H44.41v2.407H41.463a.98.98,0,0,0-.75.349,5.54,5.54,0,0,0-2.787-1.43v-5.01a3.738,3.738,0,0,0-3.734-3.733H27.9A3.724,3.724,0,0,0,25.153,47.7,3.724,3.724,0,0,0,22.4,46.492H16.114a3.738,3.738,0,0,0-3.734,3.733v5.01a5.539,5.539,0,0,0-2.788,1.43.979.979,0,0,0-.75-.349H5.895V53.91H8.836A.983.983,0,0,0,9.8,52.748l-1.13-6.075a.983.983,0,0,0-.966-.8H2.118a.983.983,0,0,0-.966.8L.023,52.748A.983.983,0,0,0,.989,53.91H3.93v2.407H.983A.983.983,0,0,0,0,57.3V71.022A.983.983,0,0,0,.983,72h48.34a.983.983,0,0,0,.983-.983V57.3A.983.983,0,0,0,49.323,56.317ZM2.171,51.945l.764-4.11H6.89l.764,4.11ZM7.86,60.689v9.35H1.965V58.282H7.86ZM26.136,50.226A1.771,1.771,0,0,1,27.9,48.457h6.288a1.771,1.771,0,0,1,1.769,1.769v4.913H26.136V50.226Zm-11.79,0a1.771,1.771,0,0,1,1.769-1.769H22.4a1.771,1.771,0,0,1,1.769,1.769v4.913H14.346V50.226ZM40.48,64.571h-23.5a.983.983,0,1,0,0,1.965h23.5v3.5H9.825V61.033h6.466a.983.983,0,0,0,0-1.965H10.214a3.589,3.589,0,0,1,3.2-1.965H36.894a3.59,3.59,0,0,1,3.586,3.586v3.881Zm2.171-12.625.764-4.11H47.37l.764,4.11H42.651ZM48.34,70.04H42.445V58.282H48.34ZM22.054,27.006H7.374a.983.983,0,0,0-.983.983V38.207a.983.983,0,0,0,.983.983h14.68a.983.983,0,0,0,.983-.983V27.989A.983.983,0,0,0,22.054,27.006Zm-.982,10.218H8.357V28.971H21.071v8.253ZM42.933,27.006H28.253a.983.983,0,0,0-.983.983V38.207a.983.983,0,0,0,.983.983h14.68a.983.983,0,0,0,.983-.983V27.989A.983.983,0,0,0,42.933,27.006ZM41.95,37.224H29.235V28.971H41.95Z" fill="#c3c3c3"/><path d="M202.824,353.616a.982.982,0,1,0,.288.695A.99.99,0,0,0,202.824,353.616Z" transform="translate(-181.384 -294.26)" fill="#c3c3c3"/></g></svg>