<svg xmlns="http://www.w3.org/2000/svg" width="44.903" height="44.999" viewBox="0 0 44.903 44.999"><g transform="translate(-2398.793 180.999)"><g transform="translate(2398.793 -158.498)"><path d="M3.463,27.212H6.313a.384.384,0,0,0,.358-.276l1-3.052H20.949l1,3.052a.384.384,0,0,0,.358.276h2.849a.4.4,0,0,0,.38-.416V15.247c0-1.542-.94-2.8-2.1-2.8h-.881V6.818a2.022,2.022,0,0,0-1.925-2.1H7.985a2.023,2.023,0,0,0-1.925,2.1v5.633H5.179c-1.156,0-2.1,1.254-2.1,2.8V26.8A.4.4,0,0,0,3.463,27.212Zm2.581-.831h-2.2v-2.5H6.861Zm-2.2-3.328V19.742h20.93v3.311Zm18.729,3.328-.816-2.5h3.017v2.5ZM6.821,6.818A1.223,1.223,0,0,1,7.985,5.545H20.633A1.223,1.223,0,0,1,21.8,6.818v5.633H17.9V9.679a.913.913,0,0,0-.869-.949H11.59a.913.913,0,0,0-.869.949v2.772h-3.9Zm10.317,5.633H11.48V9.679a.114.114,0,0,1,.108-.118H17.03a.113.113,0,0,1,.108.118Zm-11.959.831H23.438c.736,0,1.335.882,1.335,1.965v3.664H3.844V15.247c0-1.084.6-1.965,1.335-1.965Z" transform="translate(-3.083 -4.714)" fill="#b8b8b8"/><path d="M9.5,31.9c0-.374.215-.632.409-.632H11.54v-.831H9.914A1.367,1.367,0,0,0,8.674,31.9v.748H9.5Z" transform="translate(-6.348 -19.743)" fill="#b8b8b8"/></g><g transform="translate(2421.245 -158.498)"><path d="M3.463,27.212H6.313a.384.384,0,0,0,.358-.276l1-3.052H20.949l1,3.052a.384.384,0,0,0,.358.276h2.849a.4.4,0,0,0,.38-.416V15.247c0-1.542-.94-2.8-2.1-2.8h-.881V6.818a2.022,2.022,0,0,0-1.925-2.1H7.985a2.023,2.023,0,0,0-1.925,2.1v5.633H5.179c-1.156,0-2.1,1.254-2.1,2.8V26.8A.4.4,0,0,0,3.463,27.212Zm2.581-.831h-2.2v-2.5H6.861Zm-2.2-3.328V19.742h20.93v3.311Zm18.729,3.328-.816-2.5h3.017v2.5ZM6.821,6.818A1.223,1.223,0,0,1,7.985,5.545H20.633A1.223,1.223,0,0,1,21.8,6.818v5.633H17.9V9.679a.913.913,0,0,0-.869-.949H11.59a.913.913,0,0,0-.869.949v2.772h-3.9Zm10.317,5.633H11.48V9.679a.114.114,0,0,1,.108-.118H17.03a.113.113,0,0,1,.108.118Zm-11.959.831H23.438c.736,0,1.335.882,1.335,1.965v3.664H3.844V15.247c0-1.084.6-1.965,1.335-1.965Z" transform="translate(-3.083 -4.714)" fill="#b8b8b8"/><path d="M9.5,31.9c0-.374.215-.632.409-.632H11.54v-.831H9.914A1.367,1.367,0,0,0,8.674,31.9v.748H9.5Z" transform="translate(-6.348 -19.743)" fill="#b8b8b8"/></g><g transform="translate(2410.019 -180.999)"><path d="M3.463,27.212H6.313a.384.384,0,0,0,.358-.276l1-3.052H20.949l1,3.052a.384.384,0,0,0,.358.276h2.849a.4.4,0,0,0,.38-.416V15.247c0-1.542-.94-2.8-2.1-2.8h-.881V6.818a2.022,2.022,0,0,0-1.925-2.1H7.985a2.023,2.023,0,0,0-1.925,2.1v5.633H5.179c-1.156,0-2.1,1.254-2.1,2.8V26.8A.4.4,0,0,0,3.463,27.212Zm2.581-.831h-2.2v-2.5H6.861Zm-2.2-3.328V19.742h20.93v3.311Zm18.729,3.328-.816-2.5h3.017v2.5ZM6.821,6.818A1.223,1.223,0,0,1,7.985,5.545H20.633A1.223,1.223,0,0,1,21.8,6.818v5.633H17.9V9.679a.913.913,0,0,0-.869-.949H11.59a.913.913,0,0,0-.869.949v2.772h-3.9Zm10.317,5.633H11.48V9.679a.114.114,0,0,1,.108-.118H17.03a.113.113,0,0,1,.108.118Zm-11.959.831H23.438c.736,0,1.335.882,1.335,1.965v3.664H3.844V15.247c0-1.084.6-1.965,1.335-1.965Z" transform="translate(-3.083 -4.714)" fill="#b8b8b8"/><path d="M9.5,31.9c0-.374.215-.632.409-.632H11.54v-.831H9.914A1.367,1.367,0,0,0,8.674,31.9v.748H9.5Z" transform="translate(-6.348 -19.743)" fill="#b8b8b8"/></g></g></svg>