<svg xmlns="http://www.w3.org/2000/svg" width="81.822" height="40.997" viewBox="0 0 81.822 40.997"><g transform="translate(-2398.793 139.999)"><g transform="translate(2395.71 -144.713)"><path d="M3.776,45.711H8.968a.7.7,0,0,0,.653-.5l1.817-5.562h24.2l1.817,5.562a.7.7,0,0,0,.652.5H43.3a.727.727,0,0,0,.693-.757V23.908c0-2.81-1.713-5.1-3.819-5.1H38.57V8.547a3.685,3.685,0,0,0-3.507-3.833H12.016A3.686,3.686,0,0,0,8.508,8.547V18.812H6.9c-2.106,0-3.819,2.286-3.819,5.1V44.954A.727.727,0,0,0,3.776,45.711Zm4.7-1.515H4.469v-4.55h5.5Zm-4.01-6.065V32.1H42.608v6.033ZM38.6,44.2l-1.487-4.55h5.5V44.2ZM9.894,8.547a2.229,2.229,0,0,1,2.122-2.318H35.062a2.229,2.229,0,0,1,2.121,2.318V18.812h-7.1v-5.05a1.663,1.663,0,0,0-1.583-1.73H18.585A1.664,1.664,0,0,0,17,13.761v5.05H9.894Zm18.8,10.265H18.384v-5.05a.207.207,0,0,1,.2-.215H28.5a.207.207,0,0,1,.2.215ZM6.9,20.327H40.173c1.341,0,2.432,1.606,2.432,3.581v6.676H4.469V23.908c0-1.975,1.091-3.581,2.433-3.581Z" fill="#b8b8b8"/><path d="M10.192,33.1c0-.682.392-1.151.745-1.151H13.9V30.434H10.937A2.491,2.491,0,0,0,8.677,33.1v1.363h1.515Z" transform="translate(-1.355 -6.239)" fill="#b8b8b8"/></g><g transform="translate(2436.622 -144.713)"><path d="M3.776,45.711H8.968a.7.7,0,0,0,.653-.5l1.817-5.562h24.2l1.817,5.562a.7.7,0,0,0,.652.5H43.3a.727.727,0,0,0,.693-.757V23.908c0-2.81-1.713-5.1-3.819-5.1H38.57V8.547a3.685,3.685,0,0,0-3.507-3.833H12.016A3.686,3.686,0,0,0,8.508,8.547V18.812H6.9c-2.106,0-3.819,2.286-3.819,5.1V44.954A.727.727,0,0,0,3.776,45.711Zm4.7-1.515H4.469v-4.55h5.5Zm-4.01-6.065V32.1H42.608v6.033ZM38.6,44.2l-1.487-4.55h5.5V44.2ZM9.894,8.547a2.229,2.229,0,0,1,2.122-2.318H35.062a2.229,2.229,0,0,1,2.121,2.318V18.812h-7.1v-5.05a1.663,1.663,0,0,0-1.583-1.73H18.585A1.664,1.664,0,0,0,17,13.761v5.05H9.894Zm18.8,10.265H18.384v-5.05a.207.207,0,0,1,.2-.215H28.5a.207.207,0,0,1,.2.215ZM6.9,20.327H40.173c1.341,0,2.432,1.606,2.432,3.581v6.676H4.469V23.908c0-1.975,1.091-3.581,2.433-3.581Z" fill="#b8b8b8"/><path d="M10.192,33.1c0-.682.392-1.151.745-1.151H13.9V30.434H10.937A2.491,2.491,0,0,0,8.677,33.1v1.363h1.515Z" transform="translate(-1.355 -6.239)" fill="#b8b8b8"/></g></g></svg>