<svg xmlns="http://www.w3.org/2000/svg" width="18.98" height="15.753" viewBox="0 0 18.98 15.753"><g transform="translate(-4.499 -10.123)"><path d="M13.171,10.454a1.125,1.125,0,0,1,0,1.593L7.216,18l5.956,5.954a1.126,1.126,0,0,1-1.593,1.593L4.829,18.8a1.125,1.125,0,0,1,0-1.593l6.75-6.75a1.125,1.125,0,0,1,1.593,0Z" fill="#fff" fill-rule="evenodd"/><path d="M5.625,18c0-.621.348-1.125.776-1.125H22.7c.429,0,.776.5.776,1.125s-.348,1.125-.776,1.125H6.4C5.973,19.125,5.625,18.621,5.625,18Z" fill="#fff" fill-rule="evenodd"/></g></svg>