<svg xmlns="http://www.w3.org/2000/svg" width="16.524" height="15.022" viewBox="0 0 16.524 15.022"><g transform="translate(-1 -2)"><path d="M13.018,4.253a2.253,2.253,0,1,1,2.253,2.253A2.253,2.253,0,0,1,13.018,4.253ZM1.751,5h9.013a.751.751,0,0,0,0-1.5H1.751a.751.751,0,1,0,0,1.5ZM6.258,7.258A2.253,2.253,0,0,0,4.14,8.76H1.751a.751.751,0,1,0,0,1.5H4.14a2.253,2.253,0,1,0,2.118-3Zm10.516,1.5H10.764a.751.751,0,1,0,0,1.5h6.009a.751.751,0,1,0,0-1.5ZM7.76,14.018H1.751a.751.751,0,1,0,0,1.5H7.76a.751.751,0,1,0,0-1.5Zm9.013,0H14.385a2.253,2.253,0,1,0,0,1.5h2.389a.751.751,0,1,0,0-1.5Z" fill="#fff"/></g></svg>