<svg xmlns="http://www.w3.org/2000/svg" width="40" height="40" viewBox="0 0 40 40"><path d="M20,40A20.005,20.005,0,0,1,12.215,1.572a20.005,20.005,0,0,1,15.57,36.856A19.874,19.874,0,0,1,20,40ZM9.091,24.394v1.364a2.73,2.73,0,0,0,2.727,2.727H28.182a2.73,2.73,0,0,0,2.727-2.727V24.394Zm2.727-12.273a2.73,2.73,0,0,0-2.727,2.727v6.818H30.909V14.848a2.73,2.73,0,0,0-2.727-2.727ZM27.5,18.939H24.773a.683.683,0,0,1-.682-.682V16.894a.683.683,0,0,1,.682-.682H27.5a.683.683,0,0,1,.682.682v1.364A.683.683,0,0,1,27.5,18.939Z" fill="#fff"/></svg>