<?xml version="1.0" standalone="no"?>
<!DOCTYPE svg PUBLIC "-//W3C//DTD SVG 1.1//EN" "http://www.w3.org/Graphics/SVG/1.1/DTD/svg11.dtd" >
<svg xmlns="http://www.w3.org/2000/svg" xmlns:xlink="http://www.w3.org/1999/xlink" version="1.1">
<metadata>
Created by FontForge 20170731 at Mon Nov 12 19:41:30 2012
 By Aleksey,,,
Copyright (c) 2012, Soytutype (contact@soytutype.com.ar|soytutype@gmail.com), with reserved fontname 'Oleo'
</metadata>
<defs>
<font id="OleoScriptSwashCaps-Bold" horiz-adv-x="823" >
  <font-face 
    font-family="Oleo Script Swash Caps"
    font-weight="700"
    font-variant="small-caps"
    font-stretch="normal"
    units-per-em="1000"
    panose-1="2 0 0 0 0 0 0 0 0 0"
    ascent="800"
    descent="-200"
    x-height="436"
    cap-height="697"
    bbox="-159 -379 1058 1004"
    underline-thickness="50"
    underline-position="-150"
    unicode-range="U+0020-20AC"
  />
<missing-glyph horiz-adv-x="500" 
 />
    <glyph glyph-name=".notdef" horiz-adv-x="500" 
 />
    <glyph glyph-name=".null" horiz-adv-x="0" 
 />
    <glyph glyph-name="nonmarkingreturn" horiz-adv-x="333" 
 />
    <glyph glyph-name="space" unicode=" " horiz-adv-x="200" 
 />
    <glyph glyph-name="exclam" unicode="!" horiz-adv-x="334" 
d="M58 6q-23 22 -23 60t31 66.5t74.5 28.5t67 -23.5t23.5 -60.5t-32 -65t-75 -28t-66 22zM331 667q0 -73 -47.5 -240.5t-68.5 -203.5q-31 -11 -59 -11t-48 4q26 245 26 383l-6 87q110 34 190 34q13 -16 13 -53z" />
    <glyph glyph-name="quotedbl" unicode="&#x22;" horiz-adv-x="393" 
d="M148 732q91 0 91 -58q0 -29 -30 -110t-56 -137l-62 11l19 292q26 2 38 2zM315 732q91 0 91 -58q0 -29 -30 -110t-56 -137l-62 11l19 292q26 2 38 2z" />
    <glyph glyph-name="numbersign" unicode="#" horiz-adv-x="614" 
d="M301 458q16 -2 75 -2q12 82 12 105.5t-1 27.5q76 29 125 29q5 -17 5 -45.5t-17 -115.5q64 0 110 3q3 -20 3 -44q0 -67 -62 -67q-27 0 -66 3q-3 -19 -9.5 -53t-9.5 -52q52 0 115 9q3 -39 3 -45q0 -63 -62 -63q-43 0 -70 2q-13 -86 -18 -140q-29 -21 -118 -21h-11
q1 20 25 168q-9 1 -48 1h-39q-18 -102 -22 -144q-32 -25 -106 -25h-21q3 42 29 167q-54 -3 -92 -13q-11 51 -14 108q58 9 123 9h3q3 14 10.5 44.5t11.5 51.5q-76 -4 -103 -11q-17 53 -19 109q62 7 127 7h11q13 73 13 98.5t-1 29.5q74 29 121 29q6 -17 6 -38.5t-19 -121.5z
M345 255l19 104q-10 1 -60 1h-20q-4 -18 -12.5 -50.5t-12.5 -51.5z" />
    <glyph glyph-name="dollar" unicode="$" horiz-adv-x="505" 
d="M472 178q0 -73 -64 -125.5t-156 -61.5q-6 -40 -9 -112q-39 0 -84 14l18 98q-68 8 -114 39.5t-46 59.5q14 38 57.5 83.5t81.5 47.5q51 -21 87 -155q51 2 51 58q0 41 -31.5 99t-69.5 107t-69.5 109.5t-31.5 106.5q0 73 67 118.5t154 45.5h10q6 50 8 97q37 0 82 -14l-19 -96
q43 -16 67.5 -46t24.5 -62q0 -74 -122 -172q12 -15 30 -40.5t48 -89t30 -109.5zM409 584q0 49 -64 49q-34 0 -55 -15t-21 -37q0 -31 36 -81q7 -10 15 -21q25 12 57 43.5t32 61.5z" />
    <glyph glyph-name="percent" unicode="%" horiz-adv-x="864" 
d="M825.5 332.5q34.5 -39.5 34.5 -91.5t-13 -94.5t-38 -80t-69 -60.5t-107 -23t-99 39t-36 103q0 110 61 178.5t159 68.5q73 0 107.5 -39.5zM365.5 692.5q34.5 -39.5 34.5 -91.5t-13 -94.5t-38 -80t-69 -60.5t-107 -23t-99 39t-36 103q0 110 61 178.5t159 68.5
q73 0 107.5 -39.5zM342 -12q-74 0 -124 31q46 157 154 350q110 196 165 366q56 0 132 -26l7 -3q-35 -101 -102.5 -226t-129 -249t-93.5 -243h-9zM193.5 610.5q-17.5 -65.5 -17.5 -139t24 -73.5q26 0 44 75.5t18 139t-21 63.5q-30 0 -47.5 -65.5zM653.5 250.5
q-17.5 -65.5 -17.5 -139t24 -73.5q26 0 44 75.5t18 139t-21 63.5q-30 0 -47.5 -65.5z" />
    <glyph glyph-name="ampersand" unicode="&#x26;" horiz-adv-x="714" 
d="M428 431q3 -11 3 -27.5t-7 -35.5h-6q-66 0 -111 -39t-45 -106.5t32 -97t83 -29.5t89 45t49 105q-56 -29 -90 -29t-56 11.5t-31 28.5q2 7 13.5 21t21.5 15q18 -11 38 -11t55 20t69.5 43.5t78.5 43.5t85 20t74 -25.5t33 -73.5t-33.5 -81t-88.5 -33t-106 40
q-2 -101 -78 -178.5t-186 -77.5q-67 0 -128 28q-74 32 -104 98q-17 37 -17 93.5t36 106.5q66 90 189 95q-54 14 -88.5 53t-34.5 94q0 75 63 118.5t145.5 43.5t139 -36t56.5 -96q0 -41 -28 -70t-67 -29t-66.5 23.5t-27.5 65t36 69.5q-46 -3 -64.5 -34.5t-18.5 -70.5t24 -66
t68 -35h1zM727 289q0 12 -10 23.5t-34 11.5t-83 -32q52 -39 89.5 -39t37.5 36zM487 558.5q7 11.5 7 30t-15 31.5q-32 -19 -32 -49q0 -11 7 -17.5t16.5 -6.5t16.5 11.5z" />
    <glyph glyph-name="quotesingle" unicode="'" horiz-adv-x="236" 
d="M148 732q91 0 91 -58q0 -29 -30 -110t-56 -137l-62 11l19 292q26 2 38 2z" />
    <glyph glyph-name="parenleft" unicode="(" horiz-adv-x="379" 
d="M243.5 212q-7.5 -80 -7.5 -163t11.5 -138t40.5 -96l-39 -39q-7 4 -18.5 11.5t-41.5 39.5t-53 72.5t-41.5 113t-18.5 171.5t32 199t76 161.5t91 106.5t76.5 64t33.5 19l31 -47q-53 -48 -91 -129t-56 -173.5t-25.5 -172.5z" />
    <glyph glyph-name="parenright" unicode=")" horiz-adv-x="403" 
d="M175.5 298q7.5 80 7.5 163t-11.5 138t-40.5 96l39 39q7 -4 18.5 -11.5t41.5 -39.5t53 -72.5t41.5 -113t18.5 -171.5t-32 -199t-76 -161.5t-91 -106.5t-76.5 -64t-33.5 -19l-31 47q53 48 91 129t56 173.5t25.5 172.5z" />
    <glyph glyph-name="asterisk" unicode="*" horiz-adv-x="420" 
d="M319 471q5 -2 20 -2t46 9q14 -7 24 -29.5t10 -37.5t-1 -19q-29 -32 -71 -32q-12 0 -21 3q-16 8 -39.5 47.5t-37.5 80.5q-28 -40 -28 -55q0 -28 17 -58l5 -10q-12 -18 -36 -33t-44 -15q-18 11 -32 32t-14 43t30 58.5t66 63.5q-26 8 -38 8t-21 -2q-18 -4 -42 -28l-8 -8
q-19 3 -43 21t-26 40q4 23 25 44.5t40 21.5t59 -20t70 -45q-2 46 -12 62q-8 19 -39 38l-10 6q0 27 12 51t28 30q26 0 50.5 -13t31.5 -31q2 -10 2 -21q0 -67 -20 -124q40 21 48 31q14 21 18 53l2 11q26 7 52.5 7t39.5 -13q9 -22 9 -48t-14.5 -40.5t-58 -27t-83.5 -15.5
q20 -28 34 -34z" />
    <glyph glyph-name="plus" unicode="+" horiz-adv-x="528" 
d="M310 232v-134q-37 -16 -80 -16h-16v150h-153q0 57 4 92h149v131q51 14 95 14v-145h161q0 -75 -5 -92h-155z" />
    <glyph glyph-name="comma" unicode="," horiz-adv-x="255" 
d="M203.5 116q30.5 -33 30.5 -77.5t-44 -117t-82 -111.5l-51 31q45 69 54 124l-79 54q0 40 21.5 79t55.5 63q64 -12 94.5 -45z" />
    <glyph glyph-name="hyphen" unicode="-" horiz-adv-x="423" 
d="M51 241q0 58 7 88h331q0 -55 -7 -88h-331z" />
    <glyph glyph-name="period" unicode="." horiz-adv-x="272" 
d="M62.5 11.5q-22.5 23.5 -22.5 62t30.5 66t73 27.5t65 -22.5t22.5 -60.5t-30.5 -67t-73 -29t-65 23.5z" />
    <glyph glyph-name="slash" unicode="/" horiz-adv-x="373" 
d="M396 710q-149 -367 -320 -822q-50 0 -84 34q148 391 321 825q34 -8 83 -37z" />
    <glyph glyph-name="zero" unicode="0" horiz-adv-x="617" 
d="M615 457q0 -143 -52 -257q-28 -62 -68.5 -108.5t-101.5 -75t-136 -28.5q-100 0 -154.5 75t-54.5 191q0 208 98 332t262 124q101 0 154 -74t53 -179zM293 65q37 0 68 81t46 185t15 194q0 109 -45 109q-32 0 -59 -43t-42 -107q-32 -138 -32 -278.5t49 -140.5z" />
    <glyph glyph-name="one" unicode="1" horiz-adv-x="398" 
d="M94 -7h-6q0 85 27.5 209t55 234.5t27.5 162.5q-64 -41 -108 -86q-19 10 -34 29.5t-21 33.5l-6 14l177 107q76 13 174 13q11 -27 11 -68t-26.5 -154.5t-53.5 -247t-27 -223.5q-45 -24 -190 -24z" />
    <glyph glyph-name="two" unicode="2" horiz-adv-x="531" 
d="M398 -23q-33 0 -79 22t-84.5 46t-54.5 26q-39 -35 -76 -59t-50 -24t-47.5 36t-34.5 56t36 59.5t83 39.5q16 0 58 -6q68 57 125.5 154t57.5 178q0 43 -22 67t-55 24t-69 -22.5t-65 -65.5l-60 29q27 67 98.5 120t167 53t149.5 -49t54 -121q0 -51 -29.5 -110t-76.5 -112
q-87 -98 -175 -167q105 -32 169 -32q19 0 31 10t32 46l53 -18q-14 -99 -45 -139q-31 -41 -91 -41z" />
    <glyph glyph-name="three" unicode="3" horiz-adv-x="513" 
d="M316 710q89 0 141.5 -43t52.5 -107t-47.5 -112t-120.5 -64q73 -12 118 -56t45 -114q0 -96 -83 -161t-195 -65q-88 0 -161.5 38.5t-73.5 103.5q0 51 29 77q12 2 30 2q82 0 131 -40l-13 -103q11 -11 35 -11q45 0 75 50.5t30 117t-29.5 94.5t-92.5 28l-40 -2l5 64
q63 5 98 24q71 39 71 108q0 36 -19.5 55.5t-49 19.5t-63 -22t-59.5 -62l-60 28q31 67 94 109.5t152 42.5z" />
    <glyph glyph-name="four" unicode="4" horiz-adv-x="581" 
d="M486 130q-26 0 -50 4q-9 -64 -9 -113q-50 -26 -188 -26h-13q0 53 26 176q-39 5 -90 5t-86.5 -10t-37.5 -10q-15 0 -35 22.5t-20.5 38.5t11.5 33q222 312 321 443q78 14 201 17q15 -20 15 -57t-9.5 -89t-30.5 -143.5t-31 -142.5q24 -2 45.5 -2t31.5 15l16 27l52 -19
q-19 -102 -44 -134q-27 -35 -75 -35zM146 296q11 1 38.5 1t93.5 -4q61 237 62 303q-87 -107 -194 -300z" />
    <glyph glyph-name="five" unicode="5" horiz-adv-x="515" 
d="M218 699l206 10q65 0 111 -21q6 -13 6 -36q0 -45 -25 -102l-9 -19q-61 31 -104.5 31t-188.5 -7q-12 -44 -20 -92q137 -7 222 -61t85 -161.5t-81.5 -181.5t-196.5 -74q-84 0 -151 40.5t-67 106.5q0 43 19 74q20 3 34 3q86 0 134 -48l-16 -99q16 -11 30 -11q46 0 73.5 55.5
t27.5 134t-46.5 117t-128.5 38.5l-29 2l-24 32q10 35 30.5 132t32.5 140q31 -3 76 -3z" />
    <glyph glyph-name="six" unicode="6" horiz-adv-x="585" 
d="M391 637q-46 0 -79 -65t-50 -171q54 23 108 23q83 0 139.5 -49t56.5 -142.5t-80.5 -169t-199.5 -75.5q-238 0 -238 265q0 189 99.5 323t249.5 134q84 0 136.5 -33t52.5 -102q0 -42 -30 -72q-18 -3 -29 -3q-85 0 -131 45l15 85q-2 7 -20 7zM353.5 313.5
q-13.5 26.5 -44.5 26.5t-58 -18q-9 -56 -9 -118q0 -140 47 -140q38 0 58 52.5t20 111.5t-13.5 85.5z" />
    <glyph glyph-name="seven" unicode="7" horiz-adv-x="460" 
d="M106 -7h-25q10 81 34 154q46 135 220 394q-111 9 -113 9q-85 0 -145 -32q-24 66 -24 125l5 47q49 19 131 19q35 0 103 -7.5t115.5 -7.5t103.5 8l17 -46l-46 -68q-98 -157 -150.5 -319.5t-52.5 -249.5q-12 -9 -70 -17.5t-103 -8.5z" />
    <glyph glyph-name="eight" unicode="8" horiz-adv-x="513" 
d="M231 -12q-83 0 -138.5 43t-55.5 110q0 103 162 221q-80 109 -80 180.5t67.5 119t148 47.5t131 -33t50.5 -101q0 -82 -111 -183q49 -66 72 -111t23 -85q0 -93 -81 -150.5t-188 -57.5zM157 146q0 -40 24 -61t56.5 -21t58 18.5t25.5 49.5q0 47 -75 157q-89 -70 -89 -143z
M300 582q0 -45 54 -122q27 23 44.5 56.5t17.5 62t-16.5 42t-39 13.5t-41.5 -12.5t-19 -39.5z" />
    <glyph glyph-name="nine" unicode="9" horiz-adv-x="560" 
d="M71 147q67 -60 127 -60q126 0 151 200q-57 -19 -111 -19q-92 0 -143.5 54t-51.5 139q0 107 78 178t197 71q240 0 240 -280q0 -114 -37 -213.5t-112.5 -164t-174.5 -64.5q-138 0 -211 110zM301 355q28 0 55 18q9 56 9 121q0 140 -50 140q-34 0 -54.5 -54.5t-20.5 -119.5
q0 -105 61 -105z" />
    <glyph glyph-name="colon" unicode=":" horiz-adv-x="341" 
d="M120.5 287.5q-22.5 23.5 -22.5 62t30.5 66t73 27.5t65 -22.5t22.5 -60.5t-30.5 -67t-73 -29t-65 23.5zM84.5 11.5q-22.5 23.5 -22.5 62t30.5 66t73 27.5t65 -22.5t22.5 -60.5t-30.5 -67t-73 -29t-65 23.5z" />
    <glyph glyph-name="semicolon" unicode=";" horiz-adv-x="341" 
d="M225.5 116q30.5 -33 30.5 -77.5t-44 -117t-82 -111.5l-51 31q45 69 54 124l-79 54q0 40 21.5 79t55.5 63q64 -12 94.5 -45zM118.5 287.5q-22.5 23.5 -22.5 62t30.5 66t73 27.5t65 -22.5t22.5 -60.5t-30.5 -67t-73 -29t-65 23.5z" />
    <glyph glyph-name="less" unicode="&#x3c;" horiz-adv-x="446" 
d="M187 278l232 -91q0 -52 -15 -100l-367 158v64l366 176q16 -47 16 -100z" />
    <glyph glyph-name="equal" unicode="=" horiz-adv-x="512" 
d="M82 152q0 53 9 92h357q0 -62 -6 -92h-360zM82 305q0 50 9 92h357q0 -55 -5 -92h-361z" />
    <glyph glyph-name="greater" unicode="&#x3e;" horiz-adv-x="430" 
d="M52 187l231 91l-231 107q0 40 20 98l362 -174v-64l-367 -158q-15 48 -15 100z" />
    <glyph glyph-name="question" unicode="?" horiz-adv-x="407" 
d="M264 283q0 -10 21 -17q3 -1 10.5 -4t13 -4.5t8.5 -2.5q-7 -31 -23 -53q-87 0 -139.5 30.5t-52.5 88.5q0 37 38 88q14 18 40 50q101 124 101 159q0 18 -32 18q-41 -72 -78 -107q-35 5 -78.5 40.5t-43.5 56t46 52.5t109 32q95 0 150.5 -48.5t55.5 -123.5q0 -30 -16.5 -65.5
t-30 -54.5t-40.5 -51q-59 -65 -59 -84zM95.5 10q-24.5 22 -24.5 58t32.5 62t77 26t65.5 -22t21 -56t-29.5 -62t-73.5 -28t-68.5 22z" />
    <glyph glyph-name="at" unicode="@" horiz-adv-x="832" 
d="M548 8q-83 -31 -162 -31t-147 27.5t-109 73.5q-85 95 -85 226q0 81 31 155.5t86 131.5t138 90.5t180 33.5q155 0 247.5 -79t92.5 -202q0 -71 -28.5 -129t-69.5 -91q-84 -66 -147 -66q-48 0 -73 45q-65 -45 -114 -45t-88.5 38.5t-39.5 124.5q0 111 57 177.5t152 66.5
q65 0 164 -37q-28 -120 -28 -267q0 -25 9 -25q12 0 32 20t38.5 69.5t18.5 103t-12 91t-37 69.5q-52 68 -171 68q-70 0 -128 -28t-95 -75q-77 -96 -77 -217t56.5 -199t161.5 -78q63 0 117 26q20 -28 28 -58zM428 232q11 0 25.5 9.5t20.5 19.5q11 159 26 220q-12 8 -27 8
q-35 0 -53.5 -47t-18.5 -128.5t27 -81.5z" />
    <glyph glyph-name="A" unicode="A" 
d="M119 -48q-58 0 -103 39t-45 102q0 93 97 177q47 41 123.5 68.5t169.5 32.5q36 91 92 277q1 4 1 14.5t-10 17.5v14q94 16 179 16l76 -4q10 -10 20 -44.5t13 -91.5t4 -263q110 -43 197 -104q-5 -19 -22.5 -38t-32.5 -29l-14 -9q-54 52 -127 93q5 -140 38 -140q11 0 24 5
l24 -55q-72 -42 -151 -42q-126 0 -126 151v143q-59 12 -115 15q-59 -152 -125 -241q-77 -104 -187 -104zM83 99q0 -25 12 -42t36 -17q35 0 72 42.5t73.5 110.5t52.5 103q-118 -14 -182 -75t-64 -122zM546 403q0 164 -9 202q-1 1 -6 1t-6 -1q-2 -42 -68 -235q39 -3 89 -11v44
z" />
    <glyph glyph-name="B" unicode="B" horiz-adv-x="706" 
d="M361 336q-3 12 -3 28.5t7 44.5q9 0 34.5 5t54 42t28.5 92q0 96 -165 96q-65 0 -128.5 -16.5t-107.5 -48t-44 -70.5q0 -44 60 -56q1 -7 1 -19q0 -46 -18 -83q-44 4 -83.5 39t-39.5 104.5t59 124.5q112 103 333 103q324 0 324 -162q0 -134 -169 -187q60 -6 105 -44
q96 27 180 34q14 -28 14 -53.5t-6 -48.5q-23 3 -55.5 3t-82.5 -8q11 -30 11 -64q0 -99 -62 -171t-157 -72q-72 0 -109.5 35.5t-37.5 93t41.5 114t114.5 88.5q-17 56 -84 56h-15zM168 487q0 18 -4.5 27t-19.5 26v13q20 12 65 21.5t79 9.5q55 0 73 -5q6 -10 6 -41t-51.5 -229
t-60.5 -298q-72 -17 -162 -17q-24 0 -33 3q5 62 56.5 246.5t51.5 243.5zM418 40q26 0 43 40.5t17 98.5q0 16 -1 29q-41 -13 -69.5 -47.5t-28.5 -64.5q0 -56 39 -56z" />
    <glyph glyph-name="C" unicode="C" horiz-adv-x="568" 
d="M288 -12q-107 0 -173 75t-66 197.5t46 223t132 163.5t190 63q30 0 64 -9q72 46 143 46q36 0 67.5 -10.5t46.5 -25.5q-8 -38 -22 -65l-4 -9q-47 35 -101 35q-28 0 -61 -12q46 -50 46 -139.5t-47 -166t-122 -76.5q-47 0 -77 38t-30 97q0 120 85 220q-68 -6 -113.5 -104.5
t-45.5 -216.5q0 -215 107 -215q80 0 179 106l47 -40q-13 -22 -45 -56.5t-63.5 -57.5t-81 -42t-101.5 -19zM480.5 403.5q19.5 49.5 19.5 113.5t-27 93q-83 -81 -83 -194q0 -30 11 -46t30 -16q30 0 49.5 49.5z" />
    <glyph glyph-name="D" unicode="D" horiz-adv-x="824" 
d="M58.5 149.5q34.5 25.5 78 25.5t86.5 -17q26 73 43 188t17 142.5t-22 51.5v14q66 30 163 30l52 -4q6 -11 6 -43q-2 -106 -43.5 -226.5t-107.5 -205.5q64 -32 107.5 -32t81.5 40.5t60 100.5q44 123 44 226.5t-55.5 153.5t-166 50t-202 -57t-91.5 -133q0 -32 15 -47t43 -24
q-1 -50 -27 -102q-43 8 -78.5 47t-35.5 106q0 124 123 206t296.5 82t274.5 -72.5t101 -228.5q0 -103 -42.5 -202t-123 -165.5t-179.5 -66.5t-199 61q-70 -60 -140 -60q-49 0 -81 26.5t-32 68t34.5 67zM142 63q30 0 54 37q-27 16 -45.5 16t-29 -7.5t-10.5 -18.5t8 -19t23 -8z
" />
    <glyph glyph-name="E" unicode="E" horiz-adv-x="561" 
d="M582 680q-29 0 -59 -11q42 -36 42 -88.5t-30.5 -94.5t-75.5 -42t-71.5 28t-26.5 74t28 86q-37 -10 -61 -46.5t-24 -91.5t16 -93q35 5 73.5 5t71 -19.5t32.5 -54.5t-29 -59.5t-77 -24.5t-113 38q-34 -45 -34 -91.5t27 -72.5t71 -26q91 0 177 94l43 -36q-20 -32 -52.5 -64
t-62.5 -52t-76.5 -35t-95.5 -15q-93 0 -158 46.5t-65 143.5q0 57 37.5 103.5t99.5 77.5q-55 63 -55 141q0 99 77 154.5t178 55.5q38 0 69 -9q69 46 147.5 46t112.5 -41q-2 -35 -22 -58l-7 -8q-37 40 -107 40zM486 564q0 44 -30 62q-29 -34 -29 -75.5t27 -41.5q14 0 23 15.5
t9 39.5zM395 353q-20 0 -41 -8q22 -30 51 -30t29 18q0 20 -39 20z" />
    <glyph glyph-name="F" unicode="F" horiz-adv-x="620" 
d="M438 301q-15 0 -23 -1q-25 -149 -105.5 -250t-180.5 -101q-62 0 -102 38.5t-40 97.5q0 78 69.5 147.5t176.5 107.5q4 42 4 91.5t-4 80.5q-12 -2 -36 -2q-71 0 -109 29.5t-38 72.5t39.5 76.5t106.5 33.5q104 0 166 -80q16 7 70 36q129 71 185 71t86 -54t30 -122
q-4 -8 -36 -26q-47 40 -117 40t-175 -28q20 -60 20 -145q0 -6 -0.5 -17t-0.5 -17q45 6 89.5 6t77.5 -4q1 -4 1 -19.5t-8 -42t-17 -38.5q-57 19 -129 19zM65 96q0 -25 13 -37t30 -12q35 0 68 54.5t48 160.5q-74 -29 -116.5 -76t-42.5 -90zM145.5 588q14.5 -12 36.5 -12t38 4
q-19 62 -58 62q-16 0 -23.5 -8.5t-7.5 -21t14.5 -24.5z" />
    <glyph glyph-name="G" unicode="G" horiz-adv-x="599" 
d="M689 -379q-77 0 -163 69q-39 31 -84 74t-58 55q-67 -59 -149 -59q-53 0 -87.5 27t-34.5 70t35.5 72.5t96.5 29.5q36 0 75 -11q15 45 22 112q-37 -20 -84 -20q-93 0 -151 70.5t-58 187.5q0 78 27.5 153t74.5 132t114.5 91.5t141.5 34.5q35 0 63 -9q69 46 143 46
q37 0 68.5 -10.5t46.5 -25.5q-8 -38 -22 -65l-4 -9q-47 35 -101 35q-32 0 -62 -12q47 -48 47 -138.5t-47 -166.5t-121 -76q-50 0 -79 38.5t-29 103.5q0 111 85 212q-66 -7 -107.5 -91.5t-41.5 -195.5t28.5 -153t66 -42t73 26.5t59.5 70.5l73 -15q-28 -213 -101 -336
q17 -9 59 -31.5t64.5 -33.5t57.5 -26q65 -28 126 -28l53 3q30 -34 44 -66q-19 -36 -63 -64.5t-97 -28.5zM470 403q20 50 20 113t-27 93q-38 -37 -60.5 -87.5t-22.5 -97.5q0 -71 37 -71q33 0 53 50zM224 -157q41 0 69 45q-27 15 -51.5 15t-38 -10t-13.5 -23t10.5 -20t23.5 -7
z" />
    <glyph glyph-name="H" unicode="H" horiz-adv-x="789" 
d="M459 483q0 -37 -5 -84q73 10 113 13q33 163 33 253l-1 14q98 31 195 31q4 -6 4 -29q0 -57 -47 -267q68 -4 136 -18v-12q0 -25 -3 -34.5t-4 -14.5t-5 -11.5t-5 -9.5q-4 -10 -11 -17q-70 20 -127 28q-30 -143 -30 -202q0 -17 3 -23.5t17.5 -6.5t41.5 10l22 -51
q-102 -64 -181 -64q-99 0 -99 99q0 51 44 246q-53 -3 -107 -12q-29 -146 -98 -247q-35 -52 -83.5 -81.5t-109 -29.5t-98.5 39.5t-38 102.5t62 134.5t187 119.5q10 60 10 122.5t-9 85.5t-36 23q-42 0 -125 -59l-38 52q128 114 246 114q82 0 114 -56.5t32 -157.5zM93 114
q0 -21 12.5 -37t32.5 -16q37 0 69 61t49 157q-74 -27 -118.5 -76t-44.5 -89z" />
    <glyph glyph-name="I" unicode="I" horiz-adv-x="439" 
d="M418 640.5q32 -56.5 32 -151t-19.5 -184.5t-56 -167t-95.5 -126t-127.5 -49t-106.5 39.5t-38 102.5t62 134.5t187 119.5q10 60 10 122.5t-9 85.5t-36 23q-42 0 -125 -59l-38 52q128 114 246 114q82 0 114 -56.5zM84 114q0 -21 12.5 -37t32.5 -16q37 0 69 61t49 157
q-74 -27 -118.5 -76t-44.5 -89z" />
    <glyph glyph-name="J" unicode="J" horiz-adv-x="434" 
d="M175 213q9 33 23 131.5t14 151t-10 73t-35 20.5q-47 0 -126 -58l-39 52q130 114 252 114q75 0 108.5 -53.5t33.5 -172.5t-17 -215q66 6 137 6q3 -12 3 -35t-20 -66q-41 7 -73 7t-66 -2q-43 -158 -123.5 -255t-176.5 -97q-62 0 -100.5 38.5t-38.5 103.5t62 135.5
t192 121.5zM-2 -36q0 -24 13 -38t31 -14q38 0 71 61.5t50 157.5q-74 -26 -119.5 -74t-45.5 -93z" />
    <glyph glyph-name="K" unicode="K" horiz-adv-x="679" 
d="M726 638q0 -77 -64.5 -154t-169.5 -141q23 -26 56 -110t49 -118t24.5 -52t24.5 -48q28 -53 49 -53q11 0 19 4l19 -53q-54 -40 -131 -40t-108.5 31.5t-54.5 132.5q-1 4 -21 106t-33 140h-7q-26 0 -44 21q-8 6 -8 31.5t3.5 37t17.5 19.5t35.5 8t37.5 -8q52 42 84 87
q26 47 26 108q0 29 -6 60q40 24 81.5 37.5t62.5 15.5l21 2q16 -7 26.5 -26.5t10.5 -37.5zM165 616q0 16 -4.5 24.5t-17.5 23.5v14q20 12 64.5 21.5t78.5 9.5q45 0 72 -5q6 -11 6 -31q0 -79 -58.5 -324.5t-66.5 -337.5q-74 -17 -164 -17q-22 0 -31 3q5 63 63 308t58 311z" />
    <glyph glyph-name="L" unicode="L" horiz-adv-x="506" 
d="M453.5 1.5q32.5 -13.5 67 -13.5t62.5 8q22 -31 33 -61q-19 -40 -59 -70.5t-90 -30.5t-98 37.5t-108 103.5l-43 49q-56 -44 -117 -44t-94 29.5t-33 70.5t32 70t72.5 29t76.5 -11q15 64 21 143q-140 32 -140 164l6 54q10 1 38 1t54 -13q-6 -27 -6 -42q0 -79 53 -88
q4 82 7 113q11 108 75.5 159t150 51t130.5 -41.5t45 -110t-75.5 -143.5t-186.5 -105q-21 -96 -52 -201q77 -53 111.5 -73.5t67 -34zM490 561q0 25 -10.5 40t-28.5 15q-34 0 -54 -35.5t-37 -112.5l-15 -72q71 22 108 69.5t37 95.5zM135 106q-23 17 -42 17t-29 -10t-10 -21
q0 -26 26.5 -26t54.5 40z" />
    <glyph glyph-name="M" unicode="M" horiz-adv-x="1088" 
d="M319 697q89 0 117 -78q125 91 208 91t110 -67q100 67 175 67q57 0 93 -31.5t36 -91t-43.5 -228.5t-43.5 -240q0 -26 11 -26q21 0 51 12l21 -51q-93 -66 -184 -66q-43 0 -69 26t-26 76.5t42 220t42 219t-42 49.5q-23 0 -55 -19q-5 -40 -28 -138q-65 -271 -70 -409
q-51 -17 -186 -17h-17q0 60 51.5 273t51.5 249q0 61 -37 61q-21 0 -75 -37q2 -36 2 -57q0 -144 -39.5 -264t-108.5 -189t-152 -69q-62 0 -99.5 40t-37.5 115t65 177t187 208q0 50 -8.5 69t-26.5 19q-43 0 -129 -62l-40 50q47 45 117.5 81.5t136.5 36.5zM95 122q0 -27 12 -44
t31 -17q48 0 86.5 98.5t45.5 249.5q-73 -62 -124 -145.5t-51 -141.5z" />
    <glyph glyph-name="N" unicode="N" horiz-adv-x="817" 
d="M319 697q94 0 121 -90q45 33 68 48t71.5 35t99 20t85.5 -31.5t35 -89.5t-43 -229.5t-43 -237.5q0 -29 15 -29q17 0 47 12l21 -51q-92 -66 -181 -66q-47 0 -72.5 26t-25.5 76t41.5 220.5t41.5 219t-37 48.5t-111 -50q2 -28 2 -43q0 -144 -39.5 -264t-108.5 -189t-152 -69
q-62 0 -99.5 40t-37.5 115t65 177t187 208q0 50 -8.5 69t-26.5 19q-43 0 -129 -62l-40 50q47 45 117.5 81.5t136.5 36.5zM95 122q0 -27 12 -44t31 -17q48 0 86.5 98.5t45.5 249.5q-73 -62 -124 -145.5t-51 -141.5z" />
    <glyph glyph-name="O" unicode="O" horiz-adv-x="660" 
d="M312 62q42 0 75 45.5t50 118.5q-154 27 -154 202q0 107 55.5 182t140 75t131.5 -67.5t47 -174.5q0 -58 -23 -142q47 6 94 32l17 9q19 -30 22 -68l1 -14q-22 -13 -69 -27t-90 -17q-45 -103 -126.5 -165.5t-202.5 -62.5t-184.5 77.5t-63.5 214t67 251t194 178.5l34 -54
q-58 -77 -78 -165t-20 -212q0 -216 83 -216zM432 578q-23 0 -45.5 -40t-22.5 -98t23.5 -93t63.5 -40q13 84 13 177.5t-32 93.5z" />
    <glyph glyph-name="P" unicode="P" horiz-adv-x="624" 
d="M168 485q0 19 -4.5 28t-19.5 26v14q20 12 65 21.5t79 9.5q55 0 73 -5q6 -10 6 -39t-44 -199q26 -6 54 -6q55 0 81.5 55.5t26.5 125.5q0 128 -160 128q-122 0 -205 -38.5t-83 -94.5q0 -43 60 -55q1 -8 1 -19q0 -55 -18 -83q-47 6 -85 40t-38 102q0 105 113.5 165.5
t275 60.5t246 -49.5t84.5 -150t-74 -177.5t-202 -77q-55 0 -92 15q-45 -178 -53 -272q-72 -17 -162 -17q-24 0 -33 3q5 62 56.5 246t51.5 242z" />
    <glyph glyph-name="Q" unicode="Q" horiz-adv-x="668" 
d="M312 392q38 12 57.5 12h25.5q2 -18 2 -35q0 -133 -50 -215t-148 -82q-69 0 -107.5 56t-38.5 162.5t45.5 203t131.5 156t194 59.5q69 0 118.5 -24.5t75.5 -66.5q49 -79 49 -187q0 -145 -74.5 -278.5t-188.5 -221.5q52 -29 83 -44.5t78.5 -30.5t88.5 -15l31 3
q21 -26 33 -66q-19 -38 -55.5 -65.5t-83.5 -27.5q-71 0 -179 100q-42 39 -89 86q-87 -45 -150.5 -45t-97.5 28t-34 69.5t34.5 71.5t96.5 30t143 -39q73 68 120 182t47 270q0 193 -79 193q-44 0 -79 -53t-53.5 -134.5t-18.5 -177.5t19 -96q23 0 39.5 50.5t16.5 123.5
q0 3 -3 48zM109 -63q0 -28 38.5 -28t87.5 26q-47 34 -82 34q-20 0 -32 -9.5t-12 -22.5z" />
    <glyph glyph-name="R" unicode="R" horiz-adv-x="673" 
d="M341 364q14 8 35 8t37 -8q72 56 72 157q0 64 -38 93.5t-118 29.5q-124 0 -209 -38.5t-85 -94.5q0 -23 19.5 -37t40.5 -18q1 -9 1 -22q0 -54 -18 -80q-47 6 -85 41t-38 101q0 104 115.5 165t294.5 61q143 0 226 -50t83 -146q0 -68 -52.5 -122t-126.5 -89q36 -35 100 -194
t100 -159q7 0 19 4l19 -53q-59 -40 -132.5 -40t-106 32t-55.5 132q-4 17 -13 63q-23 109 -37 155h-17q-26 0 -44 21q-8 6 -8 31.5t3.5 37t17.5 19.5zM151 487q0 19 -4.5 28t-19.5 26v12q20 12 65 21.5t79 9.5q55 0 73 -5q6 -10 6 -41t-51.5 -229.5t-60.5 -297.5
q-72 -17 -162 -17q-24 0 -33 3q5 62 56.5 247t51.5 243z" />
    <glyph glyph-name="S" unicode="S" horiz-adv-x="631" 
d="M195.5 10.5q-42.5 30.5 -42.5 84t40.5 88.5t101.5 53q-21 37 -75 119q-37 -7 -65 -7q-90 0 -141 45t-51 121q0 40 11 73l4 12q54 -1 83 -12q-17 -37 -17 -76.5t31.5 -66t75.5 -26.5q15 0 30 3q-41 75 -41 127q0 75 66.5 118.5t151 43.5t130.5 -35.5t46 -88t-38 -97
t-85 -72.5q61 -81 89 -167q71 -3 178 -35q-3 -47 -38 -95q-51 38 -126 50q-1 -78 -65 -134t-147 -56q-64 0 -106.5 30.5zM420.5 523.5q20.5 28.5 20.5 55.5t-18 40.5t-46 13.5t-46 -13.5t-18 -35.5q0 -33 56 -103q31 14 51.5 42.5zM315.5 86q12.5 22 12.5 44t-6 46
q-81 -14 -81 -65q0 -19 11.5 -33t31 -14t32 22z" />
    <glyph glyph-name="T" unicode="T" horiz-adv-x="645" 
d="M528 41.5q-63 -61.5 -166 -61.5t-161 62q-62 66 -62 158q0 11 1 28q-51 -43 -95 -133q-57 26 -78 66q78 119 198 165q50 122 179 249q-64 26 -130.5 26t-123.5 -41q-33 16 -38 26q0 63 31 113t92 50q62 0 195 -69q49 -25 64 -29q43 31 93.5 51t89.5 20t69.5 -21.5
t30.5 -66.5t-32.5 -78.5t-90.5 -33.5q-30 0 -99 18q-72 -78 -120 -184q81 -2 148.5 -48t67.5 -125.5t-63 -141zM375 286q-10 0 -28 -2q-14 -50 -14 -98t22.5 -80.5t56.5 -32.5t56 35t22 79t-34.5 71.5t-80.5 27.5zM646 624q0 22 -24 22q-36 0 -76 -46q17 -12 46 -12
q54 0 54 36z" />
    <glyph glyph-name="U" unicode="U" horiz-adv-x="759" 
d="M362 354.5q-53 -162.5 -53 -203.5t34.5 -41t90.5 52q4 56 18 125q44 223 107 323t147 100q53 0 79.5 -27.5t26.5 -72.5q0 -79 -55.5 -180.5t-131.5 -191.5q-2 -40 -2 -71.5t5 -58.5t23 -27q15 0 39 8l18 -52q-77 -49 -148 -49q-99 0 -121 85q-114 -86 -211 -86
q-54 0 -84.5 32t-30.5 83t50 216q-160 75 -160 184q0 61 42.5 110.5t99 73.5t120.5 24t107 -32.5t43 -96.5t-53 -226.5zM219 569q0 51 -37 51q-34 0 -66 -32t-32 -74q0 -79 101 -118q34 108 34 173zM726 626q-21 0 -45 -82t-41 -190q37 58 66.5 138t29.5 107t-10 27z" />
    <glyph glyph-name="V" unicode="V" horiz-adv-x="688" 
d="M397 391q26 8 61 29q30 -35 31 -79q-38 -19 -103 -38q-12 -91 -12 -137t16 -46q25 0 63 45t72 124t42 159q0 98 -85 183q22 43 57.5 78t59.5 49l24 13q45 0 77.5 -51.5t32.5 -125t-42 -182.5t-104 -202t-140 -157.5t-147 -64.5t-95.5 40t-26.5 111q0 35 11 156
q-92 5 -146 62.5t-54 130.5q0 94 85 158t181 64q68 0 112 -43.5t44 -134.5q0 -37 -14 -141zM212 527q0 90 -47 90q-32 0 -63.5 -39t-31.5 -90t36.5 -81.5t91.5 -30.5q14 110 14 151z" />
    <glyph glyph-name="W" unicode="W" horiz-adv-x="1005" 
d="M884 477q0 98 -85 183q22 43 57.5 78t59.5 48l24 14q45 0 77.5 -51.5t32.5 -115.5q0 -113 -66 -265.5t-166.5 -266t-186.5 -113.5q-108 0 -123 101q-42 -47 -90 -74t-98 -27t-84.5 34.5t-34.5 110.5q0 53 5 163q-94 5 -155 63t-61 129q0 94 85 158t181 64
q68 0 111.5 -43.5t43.5 -134.5q0 -57 -7 -167t-7 -177t19 -67q15 0 42.5 24.5t48.5 55.5q2 29 9 90q15 131 15 226t-22 151q118 39 211 40q11 -39 11 -124.5t-15 -221.5t-15 -189.5t15 -53.5t40.5 32.5t51.5 82t48 116t28 127.5zM210 376q5 50 5 106.5t-9 94.5t-39.5 38
t-63 -38.5t-32.5 -89t41 -81t98 -30.5z" />
    <glyph glyph-name="X" unicode="X" horiz-adv-x="673" 
d="M611 75q9 0 32 7l21 -45q-31 -22 -75 -35.5t-81 -13.5q-92 0 -133 72q-20 35 -66 169q-78 -99 -156 -224q-12 -17 -30 -17t-46.5 14t-44.5 40q43 66 81.5 111.5t54.5 64.5q31 35 105 115q-13 39 -39 109q-52 -26 -108 -26t-94 37.5t-38 95.5q0 74 60.5 123.5t137.5 49.5
q46 0 88 -21.5t64.5 -62t70.5 -171.5q81 105 152 226q11 17 31 17q51 0 90 -55q-32 -54 -72 -100t-53.5 -61t-59 -63t-55.5 -59q64 -175 97 -236t66 -61zM100.5 503q18.5 -19 49.5 -19t58 21l-11 25q-18 38 -33.5 54t-36 16t-33 -15.5t-12.5 -39t18.5 -42.5z" />
    <glyph glyph-name="Y" unicode="Y" horiz-adv-x="783" 
d="M826 606q0 -68 -52 -168.5t-130 -175.5q-26 -126 -56 -209q84 0 166 -13q0 -45 -30 -96q-85 22 -171 26q-95 -194 -265 -194q-63 0 -99.5 25t-36.5 70q0 57 63 104t194 75l16 56q-103 -58 -186 -58q-49 0 -77.5 25t-28.5 69t38 176q-163 75 -163 186q0 60 42 108.5
t101 73t121 24.5t107 -32.5t45 -91.5t-47.5 -207.5t-47.5 -173.5q0 -32 32.5 -32t87.5 37l10 53q28 156 42 200.5t26.5 80.5t25 56.5t30 44.5t36.5 36q46 29 98.5 29t80.5 -28.5t28 -75.5zM192 396q36 114 36 169t-37 55t-69.5 -30t-32.5 -77q0 -76 103 -117zM255 -111
q0 -20 27 -20t56 28.5t51 73.5q-60 -11 -97 -35.5t-37 -46.5zM738 626q-16 0 -29 -48q-20 -77 -38 -182q29 44 53 109.5t24 93t-10 27.5z" />
    <glyph glyph-name="Z" unicode="Z" horiz-adv-x="575" 
d="M402 695q46 -8 82 -8t67 11q14 -21 14 -43q0 -84 -78.5 -236t-178.5 -286q35 -20 86 -38t87 -18t51 21q44 -7 71 -38q-21 -73 -63.5 -106.5t-89.5 -33.5q-28 0 -63 14t-54.5 26t-62.5 43t-50 36q-80 -59 -135 -59t-87.5 26.5t-32.5 70.5t43.5 78.5t108.5 34.5
q35 0 69 -10q68 84 120 183.5t65 175.5q-36 8 -38 9q-109 -119 -219 -119q-63 0 -105.5 40.5t-42.5 106t54.5 112t143.5 46.5q42 0 165 -25q21 55 27 139q18 3 37.5 3t46.5 -12q-11 -75 -38 -144zM119 498q78 0 141 73q-138 43 -176 11q-17 -15 -17 -36.5t13.5 -34.5
t38.5 -13zM44 86q0 -20 30.5 -20t61.5 38q-19 15 -42 15q-50 0 -50 -33z" />
    <glyph glyph-name="bracketleft" unicode="[" horiz-adv-x="394" 
d="M222 -133q0 -9 66 -30l21 -7l-8 -53q-14 -1 -26 -1q-114 0 -193 14q-17 23 -19 41q60 589 99 859q2 16 15.5 30t28.5 14q85 0 211 -21l-4 -59q-97 -2 -101 -21q-5 -24 -24 -153.5t-26 -192t-15 -131.5t-13 -109q-12 -111 -12 -180z" />
    <glyph glyph-name="backslash" unicode="\" horiz-adv-x="378" 
d="M9 710q42 27 83 37q173 -434 321 -825q-34 -34 -84 -34q-171 455 -320 822z" />
    <glyph glyph-name="bracketright" unicode="]" horiz-adv-x="426" 
d="M210 643q0 9 -65 30l-22 7l8 53q14 1 26 1q114 0 193 -14q17 -23 19 -41q-60 -589 -99 -859q-2 -16 -15.5 -30t-28.5 -14q-85 0 -211 21l4 59q97 2 101 21q5 24 24 153.5t26 192t15 131.5t13 109q12 111 12 180z" />
    <glyph glyph-name="asciicircum" unicode="^" horiz-adv-x="471" 
d="M453 291q-24 -7 -57.5 -7t-73.5 4l-85 235l-88 -235q-40 -4 -74 -4l-57 4q157 354 172 386h95q22 -51 53 -124q66 -153 115 -259z" />
    <glyph glyph-name="underscore" unicode="_" horiz-adv-x="614" 
d="M49 0q0 59 3 81h514q0 -65 -3 -81h-514z" />
    <glyph glyph-name="grave" unicode="`" horiz-adv-x="636" 
d="M230 696q46 0 259 -149l-26 -48q-146 52 -309 91q36 106 76 106z" />
    <glyph glyph-name="a" unicode="a" horiz-adv-x="531" 
d="M482 250.5q-15 -89.5 -15 -125t11 -35.5l50 14l18 -50q-32 -25 -81.5 -45.5t-87.5 -20.5q-65 0 -82 56q-79 -56 -139.5 -56t-93.5 44t-33 126q0 113 58 199t153 86q52 0 106 -29q8 18 13 26q72 0 159 -35q-21 -65 -36 -154.5zM224 107q7 -13 26 -13t37 15q4 116 38 243
q-15 9 -34.5 9t-35 -22t-23.5 -55q-15 -63 -15 -113.5t7 -63.5z" />
    <glyph glyph-name="b" unicode="b" horiz-adv-x="520" 
d="M327 692q0 -73 -49 -284q58 35 107 35t86 -41t37 -149.5t-59.5 -186.5t-146.5 -78q-52 0 -103 28q-100 -24 -169 -24q-5 3 -5 34q0 73 58.5 313t58.5 326q0 22 -2 42q97 27 181 27q6 -10 6 -42zM296 343q-14 0 -36 -11q-43 -185 -50 -249q18 -9 33 -9q34 0 55.5 73
t21.5 134.5t-24 61.5z" />
    <glyph glyph-name="c" unicode="c" horiz-adv-x="424" 
d="M282 376q-31 0 -53 -55t-22 -111q0 -123 71 -123q45 0 102 43l32 -44q-42 -46 -100.5 -72t-116.5 -26q-78 0 -126.5 47.5t-48.5 143.5q0 116 71.5 190t187.5 74q75 0 118 -30.5t43 -77t-28 -80.5q-33 0 -71.5 12.5t-61.5 31.5l15 75q-6 2 -12 2z" />
    <glyph glyph-name="d" unicode="d" horiz-adv-x="542" 
d="M377 -12q-62 0 -80 48q-76 -48 -135.5 -48t-96 40.5t-36.5 131.5q0 119 60.5 201t156.5 82q47 0 94 -22q37 169 37 243q0 22 -3 44q93 26 179 26q8 -13 8 -61.5t-45.5 -260.5t-45.5 -284q0 -38 13 -38l43 14l18 -51q-88 -65 -167 -65zM246 89q18 0 40 12v1q4 81 39 255
q-20 6 -29 6q-21 0 -37 -21t-25 -54q-17 -68 -17 -133.5t29 -65.5z" />
    <glyph glyph-name="e" unicode="e" horiz-adv-x="436" 
d="M20 181q0 124 75.5 193t186.5 69q77 0 123.5 -33.5t46.5 -89.5q0 -41 -25 -73t-61 -49q-76 -34 -132 -41l-25 -3q11 -66 66 -66q24 0 53 10.5t46 21.5l17 10l32 -43l-11 -11q-6 -6 -28.5 -23.5t-47 -30.5t-62.5 -23.5t-76 -10.5q-85 0 -131.5 49.5t-46.5 143.5z
M263 267.5q29 43.5 29 73t-17 29.5q-25 0 -46 -39t-24 -111q29 4 58 47.5z" />
    <glyph glyph-name="f" unicode="f" horiz-adv-x="326" 
d="M358 354l-88 7q-9 -169 -39.5 -323t-60.5 -193q-50 1 -97 11.5t-64 20.5q38 128 54 221.5t32 258.5l-66 -7q-4 19 -4 38.5t5 42.5h72q15 149 42 201q35 69 84 88q30 13 76 13t77.5 -26.5t31.5 -71t-41 -102.5t-99 -102h101q0 -45 -16 -77zM329 658q-42 0 -53 -147
q35 28 56.5 61.5t21.5 59.5t-25 26z" />
    <glyph glyph-name="g" unicode="g" horiz-adv-x="503" 
d="M281 43q-70 -38 -124.5 -38t-91 43.5t-36.5 129.5q0 115 62.5 190t149.5 75q42 0 95 -23q62 19 141 19h17q5 -10 5 -44.5t-12.5 -135.5t-27.5 -169q-32 -145 -99.5 -229.5t-169.5 -84.5q-50 0 -81.5 22t-31.5 56t16.5 56.5t47.5 37.5q53 26 130 43zM287 362
q-35 0 -53.5 -60t-18.5 -130t33 -70q14 0 41 14q8 81 26 240q-15 6 -28 6zM173 -150q19 0 43.5 19t40.5 62q-109 -19 -109 -58q2 -23 25 -23z" />
    <glyph glyph-name="h" unicode="h" horiz-adv-x="544" 
d="M329 681q0 -70 -51 -288q86 49 135.5 49t73.5 -26.5t24 -66t-22 -124t-22 -110.5t8 -26l52 14l18 -50q-31 -23 -85.5 -44t-96.5 -21q-81 0 -81 92q0 42 21 124t21 103.5t-15 21.5q-21 0 -51 -20q-45 -191 -45 -266l1 -24q-102 -27 -183 -27q-6 3 -6 32q0 62 59.5 307
t59.5 330q0 26 -4 46q97 27 182 27q7 -17 7 -53z" />
    <glyph glyph-name="i" unicode="i" horiz-adv-x="300" 
d="M244 238.5q-25 -92.5 -25 -120.5t11 -28t40 10l9 4l18 -50q-34 -26 -84.5 -46t-91.5 -20t-64.5 23t-23.5 66.5t24.5 133t24.5 113.5q0 37 -26 70l-8 11l3 17q52 16 202 16q16 -18 16 -62.5t-25 -137zM123.5 540q-25.5 24 -25.5 61.5t31.5 63t76.5 25.5t70 -21t25 -59
t-30.5 -66t-76 -28t-71 24z" />
    <glyph glyph-name="j" unicode="j" horiz-adv-x="298" 
d="M13 -224q-87 0 -155 70l27 43q32 -19 67 -19t60 46.5t51 193t26 216.5q0 15 -10 34.5t-20 31.5l-10 12l2 16q72 18 210 18q15 -17 15 -66.5t-18 -164.5t-40 -200q-61 -231 -205 -231zM139.5 540q-25.5 24 -25.5 61.5t31.5 63t76.5 25.5t70 -21t25 -59t-30.5 -66t-76 -28
t-71 24z" />
    <glyph glyph-name="k" unicode="k" horiz-adv-x="538" 
d="M143 661q0 26 -5 46q99 27 180 27q10 -12 10 -53q0 -73 -45 -280q80 42 141.5 42t94 -25t32.5 -70q0 -87 -129 -124q32 -138 62 -138l48 13l22 -49q-25 -20 -77 -41t-100 -21t-73 36t-32 94t-7 130q48 12 76 34.5t28 45t-24 22.5q-19 0 -44.5 -11t-37.5 -21
q-54 -228 -54 -305q-77 -17 -183 -17q-1 8 -1 19q0 52 59 304.5t59 341.5z" />
    <glyph glyph-name="l" unicode="l" horiz-adv-x="297" 
d="M216 8q-52 -20 -94.5 -20t-69.5 24.5t-27 70.5t50.5 256.5t50.5 312.5q0 22 -6 56q94 26 182 26q9 -16 9 -52q0 -68 -50.5 -296.5t-50.5 -263.5t12 -35q10 0 43 13l11 5l24 -49q-32 -28 -84 -48z" />
    <glyph glyph-name="m" unicode="m" horiz-adv-x="790" 
d="M60 -6h-25q0 71 27.5 198.5t27.5 141.5t-9 31t-18 26l-9 9l2 15q58 19 205 19q11 -23 15 -49q87 57 147 57q32 0 54.5 -17t31.5 -45q83 62 152 62q45 0 70.5 -27.5t25.5 -66t-22 -124.5t-22 -110.5t8 -24.5l52 13l18 -50q-30 -24 -82.5 -44t-94.5 -20q-86 0 -86 87
q0 37 21 126t21 108.5t-15 19.5q-21 0 -45 -17q-3 -15 -16 -72q-28 -128 -28 -227q-46 -17 -179 -17q-3 11 -3 52t22 145t22 120t-14 16q-17 0 -44 -16q-3 -17 -19 -87q-34 -147 -34 -214q-47 -18 -157 -18z" />
    <glyph glyph-name="n" unicode="n" horiz-adv-x="554" 
d="M52 -6h-17q0 62 28.5 188t28.5 145t-9 37t-18 27l-9 9l2 15q59 19 206 19q10 -23 14 -48q91 56 153 56q42 0 66 -27.5t24 -66t-22 -123.5t-22 -110.5t7 -25.5l53 14l18 -50q-32 -24 -83.5 -44.5t-94.5 -20.5q-85 0 -85 88q0 38 21 124t21 107.5t-14 21.5q-18 0 -48 -20
q-4 -18 -20 -87q-32 -145 -32 -209q-49 -19 -168 -19z" />
    <glyph glyph-name="o" unicode="o" horiz-adv-x="446" 
d="M188 -12q-78 0 -123 49.5t-45 139.5q0 110 65 186.5t171 76.5l45 -4q24 7 45 7q50 0 71.5 -34t24.5 -97q42 2 80 13l14 4q7 -7 10 -42l1 -11q-45 -23 -110 -36q-22 -106 -87 -179t-162 -73zM208 181q0 -93 47 -93q33 0 67.5 42t47.5 102q-102 0 -102 98q0 17 3 35
q-10 0 -15 -3q-17 -18 -32.5 -72.5t-15.5 -108.5z" />
    <glyph glyph-name="p" unicode="p" horiz-adv-x="512" 
d="M-2 -224q-8 13 -8 55t38.5 228t38.5 233t-9 71.5t-18 31.5l-9 7l2 15q60 19 203 19q8 -15 13 -39q64 46 121 46t93.5 -43.5t36.5 -147.5t-54.5 -184t-159.5 -80q-46 0 -90 18q-23 -113 -23 -199q-72 -26 -175 -31zM240 72q27 0 46 40q34 70 34 170q0 59 -29 59
q-15 0 -40 -11q-6 -84 -40 -253q17 -5 29 -5z" />
    <glyph glyph-name="q" unicode="q" horiz-adv-x="518" 
d="M231 -224h-11q-1 9 -1 30q0 56 37 214q-54 -32 -106.5 -32t-86.5 40.5t-34 128.5q0 122 62.5 204t149.5 82q54 0 95 -23q85 21 162 21q8 -11 8 -42q0 -63 -51.5 -288t-51.5 -304q-67 -31 -172 -31zM294 361q-37 0 -57 -72t-20 -147q0 -28 5 -40t20.5 -12t32.5 8
q43 181 45 258q-15 5 -26 5z" />
    <glyph glyph-name="r" unicode="r" horiz-adv-x="392" 
d="M49 -6h-8q-3 14 -3 43.5t24.5 153t24.5 140t-9 34t-18 26.5l-9 9l2 15q60 19 199 19q13 -25 16 -59q61 68 108 68q61 0 67 -103q-2 -2 -5 -6.5t-14 -15.5t-23 -20q-34 -23 -72 -27q-1 0 -13.5 22t-21 22t-31.5 -18q-3 -18 -11.5 -61t-13.5 -71q-15 -74 -15 -124l1 -30
q-44 -17 -175 -17z" />
    <glyph glyph-name="s" unicode="s" horiz-adv-x="385" 
d="M368 135q0 -62 -57.5 -104.5t-134.5 -42.5t-126.5 26t-49.5 49.5t30.5 60t62.5 42.5q46 -25 83 -111q29 0 29 19q0 14 -8 26t-12 19t-14 19.5t-15 18.5q-25 30 -45 55q-48 60 -48 105.5t29 74.5q50 51 147 51q61 0 97 -23.5t36 -70t-55 -106.5q51 -59 51 -108zM313 352
q0 15 -13 23t-31 8t-27.5 -8.5t-9.5 -22.5t43 -62q14 10 26 28.5t12 33.5z" />
    <glyph glyph-name="t" unicode="t" horiz-adv-x="338" 
d="M372 354l-86 7q-40 -179 -43.5 -208t-3.5 -47.5t12 -18.5q14 0 53 18l24 -48q-32 -29 -81 -49t-94.5 -20t-72.5 23.5t-27 66.5t25 138t33 141q-24 -2 -71 -7q-4 21 -4 39.5t5 41.5h80q1 13 1 87l-2 41q97 32 185 32q7 -16 7 -55.5t-13 -104.5h90q0 -41 -17 -77z" />
    <glyph glyph-name="u" unicode="u" horiz-adv-x="542" 
d="M61.5 219q26.5 96 26.5 118t-36 64l2 15q91 20 213 20q8 -17 8 -54t-27.5 -140t-27.5 -122q0 -26 25 -26q17 0 43 13q3 16 18 84q35 151 35 226q46 20 157 20h27q0 -45 -26.5 -176t-27 -151t8.5 -20l49 13l18 -50q-29 -23 -84 -44t-97 -21q-62 0 -77 50q-83 -50 -159 -50
q-95 0 -95 93q0 42 26.5 138z" />
    <glyph glyph-name="v" unicode="v" horiz-adv-x="427" 
d="M49 114l13 209q0 27 -7.5 42.5t-30.5 43.5l4 15q77 18 128 18t71.5 -23.5t20.5 -66.5t-15.5 -126t-15.5 -109.5t15 -26.5q24 0 62.5 45.5t50.5 89.5l-74 71q4 42 18 78.5t25 51.5l12 16q121 0 121 -100q0 -65 -39.5 -146.5t-110.5 -144.5t-147 -63q-101 0 -101 126z" />
    <glyph glyph-name="w" unicode="w" horiz-adv-x="660" 
d="M49 109l10 220q0 21 -6 36.5t-29 42.5l3 16q76 19 126 19t71.5 -24t21.5 -66.5t-15 -124.5t-15 -110.5t16 -28.5q22 0 55 26q1 17 9 98t8 120.5t-6 69.5q23 12 80 22t96 10q9 -18 9 -56.5t-17 -134t-17 -125t16 -29.5q24 0 62 47.5t50 86.5l-73 72q4 41 18 77.5t26 52.5
l11 16q121 0 121 -98q0 -47 -25.5 -109t-64.5 -116.5t-93 -92.5t-105 -38q-71 0 -97 61q-73 -60 -150 -60q-46 0 -71 27t-25 93z" />
    <glyph glyph-name="x" unicode="x" horiz-adv-x="424" 
d="M378 90q12 0 44 15l22 -49q-24 -24 -75.5 -46t-90.5 -22t-61 16.5t-37 57.5q-6 14 -23 64q-38 -45 -73 -138q-22 0 -54 10.5t-50 23.5q61 101 153 176q-34 103 -54 142q-8 20 -48 60l3 15q71 19 187 23q10 -3 23 -20.5t20 -40.5l20 -70q18 27 25 41l10 20q10 20 12 29
q6 26 13 44q42 -4 83 -26l13 -7q-49 -93 -135 -171q43 -147 73 -147z" />
    <glyph glyph-name="y" unicode="y" horiz-adv-x="505" 
d="M499 436h8q-5 -26 -17 -112q-27 -196 -58 -296q-77 -252 -247 -252q-51 0 -82.5 21.5t-31.5 56t16.5 57t47.5 37.5q53 26 130 43q8 38 10 49q-78 -42 -148 -42q-96 0 -96 94q0 33 22 129.5t22 133.5t-5 55q118 25 183 25q8 -12 8 -47.5t-22.5 -137.5t-22.5 -120
q0 -31 30 -31q17 0 39 9q8 51 22.5 155.5t20.5 143.5q26 12 78.5 20.5t92.5 8.5zM142 -127q0 -23 30 -23q15 0 39.5 20.5t39.5 60.5q-109 -19 -109 -58z" />
    <glyph glyph-name="z" unicode="z" horiz-adv-x="425" 
d="M150 440l205 -5q35 0 65 3l9 -34q-145 -168 -207 -254q99 -26 125.5 -26.5t43.5 41.5l43 -15q-18 -176 -115 -176q-34 0 -92.5 33t-75.5 39q-48 -51 -71.5 -51t-51.5 27.5t-28 51.5t35.5 59t75.5 35q10 0 30 -2q59 55 104 145q-122 0 -184 -36q-12 48 -12 83t2 61
q16 21 99 21z" />
    <glyph glyph-name="braceleft" unicode="{" horiz-adv-x="468" 
d="M222 390l-3 206q0 65 38 102t101.5 37t128.5 -27l-8 -50h-8q-59 0 -71 -14t-20 -72t-14.5 -139t-10.5 -108q-7 -52 -69 -74q23 -8 36.5 -28t13.5 -50.5t-18 -143.5t-18 -133t3 -27q5 -14 24 -23.5t36 -11.5l17 -3l-6 -50q-29 -5 -67 -5q-177 0 -177 112q0 36 34.5 154.5
t42.5 163.5q-10 12 -99 20l-30 2q1 47 10 85q86 -14 119 -14l11 1q4 37 4 90z" />
    <glyph glyph-name="bar" unicode="|" horiz-adv-x="268" 
d="M204 796v-939q-44 -6 -95 -6v940q63 5 95 5z" />
    <glyph glyph-name="braceright" unicode="}" horiz-adv-x="471" 
d="M293 121l3 -206q0 -65 -38 -102t-102 -37t-128 27l8 50q66 0 79 13.5t20.5 71.5t14 139.5t10.5 108.5q7 52 69 74q-23 8 -36.5 28t-13.5 50.5t18 144t18 132.5t-4 30t-23 20.5t-36 12.5l-17 2l6 50q29 5 67 5q177 0 177 -112q0 -36 -34.5 -154.5t-42.5 -163.5
q10 -12 99 -19l30 -3q-1 -47 -10 -85q-86 14 -119 14l-11 -1q-4 -37 -4 -90z" />
    <glyph glyph-name="asciitilde" unicode="~" horiz-adv-x="540" 
d="M384 224q-24 0 -108.5 13.5t-109 13.5t-40 -8t-31.5 -32l-51 13q16 152 137 152q25 0 107.5 -13.5t118 -13.5t58.5 33l48 -12q-16 -146 -129 -146z" />
    <glyph glyph-name="nbspace" unicode="&#xa0;" horiz-adv-x="200" 
 />
    <glyph glyph-name="exclamdown" unicode="&#xa1;" horiz-adv-x="311" 
d="M286 430q23 -22 23 -60t-31 -66.5t-74.5 -28.5t-67 23.5t-23.5 60.5t32 65t75 28t66 -22zM13 -231q0 73 47.5 240.5t68.5 203.5q31 11 59 11t48 -4q-26 -245 -26 -383l6 -87q-110 -34 -190 -34q-13 16 -13 53z" />
    <glyph glyph-name="cent" unicode="&#xa2;" horiz-adv-x="415" 
d="M282 376q-31 0 -53 -55t-22 -111q0 -123 71 -123q45 0 102 43l32 -44q-80 -87 -196 -97q-5 -40 -5 -105q-39 0 -84 14l18 96q-58 13 -91.5 59.5t-33.5 125.5q0 103 56.5 173.5t152.5 86.5q5 49 9 123q36 0 81 -14l-21 -106q67 -4 104.5 -34t37.5 -74.5t-28 -78.5
q-33 0 -71.5 12.5t-61.5 31.5l15 75q-6 2 -12 2z" />
    <glyph glyph-name="sterling" unicode="&#xa3;" horiz-adv-x="551" 
d="M385 733q83 0 138.5 -34.5t55.5 -88.5q0 -40 -33 -82q-95 0 -138 38l11 87q-9 9 -24 9t-25 -10q-15 -18 -23 -48t-17 -85t-20 -108h158q-2 -23 -16 -55l-5 -10q-73 6 -152 6q-32 -117 -70 -194q126 -35 189 -35q26 0 43 21q15 18 27 41l54 -21q-20 -94 -53 -138t-82 -44
q-32 0 -65.5 13t-80 37.5t-74.5 36.5q-28 -35 -63 -57.5t-49.5 -22.5t-48 44.5t-33.5 65.5q0 10 37 36.5t71 33.5q16 49 30 174q-19 -2 -49 -8q-3 14 -3 33.5t3 42.5h57l11 94q16 141 81 187q33 24 69.5 32.5t88.5 8.5z" />
    <glyph glyph-name="currency" unicode="&#xa4;" horiz-adv-x="696" 
d="M152 222q-29 54 -29 123.5t23 118.5q-63 54 -102 104q38 42 57.5 58t41 16.5t42.5 -26.5l44 -60q54 31 131 31t133 -32q9 12 24 33t21 28q21 27 45 27q19 -2 39 -17t57 -57q-35 -45 -103 -105q24 -51 24 -117t-25 -117q68 -60 106 -107q-37 -41 -56.5 -55.5t-38.5 -16.5
q-24 0 -45 27q-6 8 -22 30t-26 34q-54 -31 -128.5 -31t-126.5 26q-42 -58 -43 -59q-21 -27 -45 -27q-19 2 -38.5 16.5t-56.5 55.5q33 42 97 99zM361 468q-108 0 -108 -118.5t108 -118.5q56 0 82 32t26 86t-26 86.5t-82 32.5z" />
    <glyph glyph-name="yen" unicode="&#xa5;" horiz-adv-x="516" 
d="M60 270q0 19 3 40h122q-26 36 -46 156t-25 136q-10 28 -44 55l-12 9l3 23q102 17 208 17q27 -19 33 -58.5t11 -121t9 -102.5h5q25 44 58.5 131.5t50.5 154.5q28 0 68 -7.5t58 -17.5q-7 -11 -80 -157t-118 -218h117q-2 -27 -15 -54l-4 -10q-45 3 -114 3l-7 -42h127
q-2 -27 -14 -54l-5 -10q-48 4 -116 6q-7 -70 -7 -121q-43 -28 -188 -28h-5q0 44 19 144q-45 -4 -102 -11q-3 16 -3 35.5t3 38.5h115l9 40q-67 -3 -112 -9q-2 13 -2 32z" />
    <glyph glyph-name="brokenbar" unicode="&#xa6;" horiz-adv-x="278" 
d="M109 -149v441h95v-435q-43 -6 -95 -6zM204 797v-398h-95v392q27 6 95 6z" />
    <glyph glyph-name="section" unicode="&#xa7;" horiz-adv-x="502" 
d="M347 666q-62 0 -62 -56q0 -53 102 -155q37 -37 68 -88t31 -98t-42 -88t-110 -67q57 -72 57 -137.5t-56 -108t-135.5 -42.5t-137 29.5t-57.5 53.5q2 29 38 62.5t72 43.5q37 -25 61 -75q7 -16 18 -47q20 5 27 14t7 31.5t-20.5 56t-50 66.5t-58.5 68q-70 84 -70 157
q0 56 39.5 95.5t105.5 59.5q-57 73 -57 139t67.5 110t145 44t122 -35.5t44.5 -89.5t-60 -105q-54 9 -80 47q16 12 29 31.5t13 39.5t-14.5 32t-36.5 12zM296 285q-15 22 -22 31q-15 22 -48 60q-27 -22 -27 -61q0 -31 37 -73q10 -12 15.5 -18.5t18.5 -20.5t18 -20
q23 23 23 51.5t-15 50.5z" />
    <glyph glyph-name="dieresis" unicode="&#xa8;" horiz-adv-x="548" 
d="M108 550q-21 20 -21 51.5t26 53t63 21.5t57.5 -17.5t20.5 -49.5t-25.5 -55.5t-62.5 -23.5t-58 20zM319 550q-21 20 -21 51.5t26 53t63 21.5t57.5 -17.5t20.5 -49.5t-25.5 -55.5t-62.5 -23.5t-58 20z" />
    <glyph glyph-name="copyright" unicode="&#xa9;" horiz-adv-x="794" 
d="M552 388q-71 0 -100 21l4 90q-3 6 -20 6q-31 0 -52.5 -45t-21.5 -114q0 -128 80 -128q56 0 96 40l38 -47q-3 -3 -7.5 -9t-22 -20t-36.5 -25q-50 -29 -114 -29q-84 0 -144 52t-60 148.5t72.5 169.5t180.5 73q69 0 115.5 -31.5t46.5 -84.5q0 -20 -6 -41.5t-12 -23.5
q-17 -2 -37 -2zM130 86.5q-98 101.5 -98 257.5t99 259.5t278 103.5t276 -101t97 -259t-97 -260t-277 -102t-278 101.5zM195 553.5q-76 -83.5 -76 -209t75 -207.5t214.5 -82t214 82.5t74.5 210t-74.5 208.5t-213 81t-214.5 -83.5z" />
    <glyph glyph-name="ordfeminine" unicode="&#xaa;" horiz-adv-x="414" 
d="M236 339q-44 -29 -85 -29t-69.5 33t-28.5 93q0 96 52.5 162t139.5 66q34 0 56 -6q55 -15 91 -27q-16 -47 -29.5 -123.5t-13.5 -109.5q0 -10 8 -10l28 8l14 -35q-17 -17 -50.5 -34.5t-65.5 -17.5t-47 30zM242 602q-23 0 -39 -55t-16 -106t17 -51q9 0 21 10q7 85 36 199
q-12 3 -19 3z" />
    <glyph glyph-name="guillemotleft" unicode="&#xab;" horiz-adv-x="523" 
d="M114 194.5q-70 70.5 -70 95t67 88.5t142 124l46 -41q-78 -111 -105 -166q25 -69 76 -159l-45 -41q-41 29 -111 99.5zM315 194.5q-70 70.5 -70 95t67 88.5t142 124l46 -41q-78 -111 -105 -166q25 -69 76 -159l-45 -41q-41 29 -111 99.5z" />
    <glyph glyph-name="logicalnot" unicode="&#xac;" horiz-adv-x="455" 
d="M404 389v-220q-34 -12 -97 -12v139h-261q0 61 6 93h352z" />
    <glyph glyph-name="uni00AD" unicode="&#xad;" horiz-adv-x="590" 
d="M493 234h-369q-3 42 -3 90h369q3 -55 3 -90z" />
    <glyph glyph-name="registered" unicode="&#xae;" horiz-adv-x="794" 
d="M448 461q0 43 -28 43l-17 -1q-3 -21 -8.5 -63.5t-8.5 -65.5q62 4 62 87zM261 469q0 15 -21 49l5 26q94 23 201 23q67 0 110.5 -27.5t43.5 -72t-23.5 -79t-68.5 -51.5q17 -41 39 -79t34 -38l22 2l15 -35q-51 -40 -111 -40q-45 0 -71 23q-10 9 -18.5 27.5t-11.5 31.5
t-9 39.5t-9 39.5h-10q-15 -92 -16 -141q-39 -17 -116 -17q-16 0 -36 5q5 40 28 159.5t23 154.5zM130 86.5q-98 101.5 -98 257.5t99 259.5t278 103.5t276 -101t97 -259t-97 -260t-277 -102t-278 101.5zM195 553.5q-76 -83.5 -76 -209t75 -207.5t214.5 -82t214 82.5t74.5 210
t-74.5 208.5t-213 81t-214.5 -83.5z" />
    <glyph glyph-name="macron" unicode="&#xaf;" horiz-adv-x="502" 
d="M135 575q-3 15 -3 39t4 50h371l-9 -86q-64 4 -186 4t-177 -7z" />
    <glyph glyph-name="degree" unicode="&#xb0;" horiz-adv-x="255" 
d="M287 687.5q38 -29.5 38 -79t-37.5 -90t-115.5 -40.5q-55 0 -95 28t-40 82.5t40 91.5t106 37t104 -29.5zM146 558q9 -14 31.5 -14t34 21.5t11.5 40t-9 32t-30.5 13.5t-34 -20t-12.5 -39.5t9 -33.5z" />
    <glyph glyph-name="plusminus" unicode="&#xb1;" horiz-adv-x="583" 
d="M329 303v-142q-30 -8 -90 -8h-7v150h-155q0 60 4 93h151v140q32 5 96 5v-145h170q0 -78 -5 -93h-164zM77 9q0 66 10 93h412q0 -69 -5 -93h-417z" />
    <glyph glyph-name="twosuperior" unicode="&#xb2;" horiz-adv-x="397" 
d="M315 345q-38 0 -84.5 20t-57.5 24q-54 -35 -82 -35q-12 0 -30.5 20.5t-18.5 30.5t24 34.5t42 24.5t30 -2q35 25 65.5 69t30.5 82.5t-32.5 38.5t-64.5 -43l-44 31q30 43 65 68.5t90.5 25.5t91 -28.5t35.5 -74t-46 -97.5t-102 -87q51 -12 80 -12t37.5 6.5t17.5 21.5l39 -14
q-9 -104 -86 -104z" />
    <glyph glyph-name="threesuperior" unicode="&#xb3;" horiz-adv-x="356" 
d="M144.5 712.5q40.5 21.5 98 21.5t93 -23t35.5 -56t-27.5 -56.5t-73.5 -35.5q104 -12 104 -94q0 -52 -45.5 -88.5t-144.5 -36.5q-54 0 -97.5 23t-43.5 64q0 21 13 44q59 0 112 -25l-8 -53q8 -3 15 -3q23 0 32.5 25.5t9.5 57t-21 42.5t-65 12l-1 40q14 1 31 4q58 10 58 60
q0 16 -10 24t-25 8q-37 0 -64 -35l-38 29q22 30 62.5 51.5z" />
    <glyph glyph-name="acute" unicode="&#xb4;" horiz-adv-x="616" 
d="M459 614q0 -35 -37 -51q-56 -26 -260 -62l-17 50q123 60 274 156q11 -15 25.5 -47t14.5 -46z" />
    <glyph glyph-name="mu" unicode="&#xb5;" horiz-adv-x="544" 
d="M1 -218l-3 38q0 162 71 410q24 84 24 103t-7.5 31.5t-28.5 37.5l2 15q82 18 213 18q8 -14 8 -48.5t-27.5 -138.5t-27.5 -128q0 -31 30 -31q15 0 34 7q0 2 28.5 130.5t28.5 187.5q46 20 154 20h28q0 -45 -27 -175.5t-27.5 -150t7.5 -19.5l50 14l18 -50
q-29 -24 -82.5 -44.5t-95.5 -20.5q-67 0 -80 55q-74 -47 -143 -54q-1 -20 -1 -38q0 -80 25 -135q-65 -26 -171 -34z" />
    <glyph glyph-name="mu" unicode="&#x3bc;" horiz-adv-x="544" 
d="M1 -218l-3 38q0 162 71 410q24 84 24 103t-7.5 31.5t-28.5 37.5l2 15q82 18 213 18q8 -14 8 -48.5t-27.5 -138.5t-27.5 -128q0 -31 30 -31q15 0 34 7q0 2 28.5 130.5t28.5 187.5q46 20 154 20h28q0 -45 -27 -175.5t-27.5 -150t7.5 -19.5l50 14l18 -50
q-29 -24 -82.5 -44.5t-95.5 -20.5q-67 0 -80 55q-74 -47 -143 -54q-1 -20 -1 -38q0 -80 25 -135q-65 -26 -171 -34z" />
    <glyph glyph-name="paragraph" unicode="&#xb6;" horiz-adv-x="643" 
d="M198 -167h-30q4 73 61 325q-81 3 -128 56t-47 148q0 144 89 239.5t241 95.5h256q7 -31 7 -62.5t-2.5 -57t-9.5 -58.5t-11.5 -53t-16 -64t-15.5 -62t-21 -83.5t-25 -99.5t-20 -89q-22 -101 -22 -184q-58 -26 -110 -26h-30q2 106 90 446q42 162 48.5 217t6.5 86
q-41 0 -54 -4q-7 -125 -74 -376.5t-77 -370.5q-47 -23 -106 -23z" />
    <glyph glyph-name="periodcentered" unicode="&#xb7;" horiz-adv-x="325" 
d="M93.5 265.5q-22.5 23.5 -22.5 62t30.5 66t73 27.5t65 -22.5t22.5 -60.5t-30.5 -67t-73 -29t-65 23.5z" />
    <glyph glyph-name="cedilla" unicode="&#xb8;" horiz-adv-x="512" 
d="M245 -95q0 -18 15 -18q29 0 68 23l28 -41q-21 -24 -66 -45.5t-80.5 -21.5t-57.5 19.5t-22 55t39 77t71 55.5l60 -6q-55 -52 -55 -98z" />
    <glyph glyph-name="onesuperior" unicode="&#xb9;" horiz-adv-x="312" 
d="M286 733l17 1q12 -20 12 -46t-32 -156.5t-32 -166.5q-37 -16 -116 -16h-32q5 53 31.5 154.5t34.5 157.5q-7 0 -32.5 -21.5t-30.5 -25.5l-36 48l86 63q30 4 130 8z" />
    <glyph glyph-name="ordmasculine" unicode="&#xba;" horiz-adv-x="331" 
d="M185 546.5q-14 -46.5 -14 -93.5t5 -63.5t19 -16.5q24 0 38 53t14 110t-24 57t-38 -46.5zM373 531q0 -87 -50 -156t-147 -69q-64 0 -98 36t-34 94q0 100 54.5 162t143.5 62q67 0 99 -37t32 -92z" />
    <glyph glyph-name="guillemotright" unicode="&#xbb;" horiz-adv-x="554" 
d="M441 402.5q70 -70.5 70 -95t-67 -88.5t-142 -124l-46 41q78 111 105 166q-25 69 -76 159l45 41q41 -29 111 -99.5zM240 402.5q70 -70.5 70 -95t-67 -88.5t-142 -124l-47 41q78 111 105 166q-25 69 -76 159l46 41q41 -29 111 -99.5z" />
    <glyph glyph-name="onequarter" unicode="&#xbc;" horiz-adv-x="790" 
d="M640 698l7 -3q-43 -99 -121 -221.5t-149.5 -244.5t-113.5 -241q-31 1 -70 12t-63 29q55 154 182 345q129 196 196 361q63 -5 132 -37zM712 139q16 0 26 23l35 -11q-4 -32 -22.5 -59t-58.5 -27h-11q-6 -26 -6 -54q-37 -17 -118 -17h-22q0 25 6.5 53t7.5 33q-45 5 -68 5
t-61 -10q-12 0 -27 11t-15 19.5t6 17.5q95 122 118 157q35 49 63 87q58 12 148 13q10 -19 10 -37q0 -59 -31 -204h20zM283 733l17 1q12 -20 12 -46t-32 -156.5t-32 -166.5q-37 -16 -116 -16h-32q5 53 31.5 154.5t34.5 157.5q-7 0 -32.5 -21.5t-30.5 -25.5l-36 48l86 63
q30 4 130 8zM509 155q40 -2 51 -4q28 120 27 139q-60 -96 -78 -135z" />
    <glyph glyph-name="onehalf" unicode="&#xbd;" horiz-adv-x="791" 
d="M640 698l7 -3q-43 -99 -121 -221.5t-149.5 -244.5t-113.5 -241q-31 1 -70 12t-63 29q55 154 182 345q129 196 196 361q63 -5 132 -37zM673 -24q-38 0 -84.5 20t-57.5 24q-54 -35 -82 -35q-12 0 -30.5 20.5t-18.5 30.5t24 34.5t43 24.5t29 -2q35 25 65.5 69t30.5 82.5
t-32 38.5q-34 0 -66 -43l-43 31q30 43 65 68.5t90.5 25.5t91 -28.5t35.5 -74t-46 -97.5t-102 -87q51 -12 80 -12t37.5 6.5t17.5 21.5l39 -14q-9 -104 -86 -104zM283 733l17 1q12 -20 12 -46t-32 -156.5t-32 -166.5q-37 -16 -116 -16h-32q5 53 31.5 154.5t34.5 157.5
q-7 0 -32.5 -21.5t-30.5 -25.5l-36 48l86 63q30 4 130 8z" />
    <glyph glyph-name="threequarters" unicode="&#xbe;" horiz-adv-x="865" 
d="M715 698l7 -3q-43 -99 -121 -221.5t-149.5 -244.5t-113.5 -241q-31 1 -70 12t-63 29q55 154 182 345q129 196 196 361q63 -5 132 -37zM787 139q16 0 26 23l35 -11q-4 -32 -22.5 -59t-58.5 -27h-11q-6 -26 -6 -54q-37 -17 -118 -17h-22q0 25 6.5 53t7.5 33q-45 5 -68.5 5
t-60.5 -10q-12 0 -27 11t-15 19.5t6 17.5q95 122 118 157q35 49 63 87q58 12 148 13q10 -19 10 -37q0 -59 -31 -204h20zM139.5 712.5q40.5 21.5 98 21.5t93 -23t35.5 -56t-27.5 -56.5t-73.5 -35.5q104 -12 104 -94q0 -52 -45.5 -88.5t-144.5 -36.5q-42 0 -79 15t-55 44
q-8 12 -8 29.5t14 42.5q59 0 112 -25l-8 -53q7 -3 15 -3q23 0 32.5 25.5t9.5 57t-21 42.5t-65 12l-1 40q14 1 31 4q58 10 58 60q0 16 -10 24t-25 8q-37 0 -64 -35l-38 29q22 30 62.5 51.5zM584 155q40 -2 51 -4q28 120 27 139q-60 -96 -78 -135z" />
    <glyph glyph-name="questiondown" unicode="&#xbf;" horiz-adv-x="368" 
d="M134 146q0 10 -21 17q-3 1 -10.5 4t-13 4.5t-8.5 2.5q7 31 23 53q87 0 139.5 -30.5t52.5 -88.5q0 -37 -38 -88q-14 -18 -40 -50q-101 -124 -101 -159q0 -18 32 -18q41 72 78 107q35 -5 78.5 -40.5t43.5 -56t-46 -52.5t-109 -32q-95 0 -150.5 48.5t-55.5 123.5
q0 30 16.5 65.5t30 54.5t40.5 51q59 65 59 84zM302.5 419q24.5 -22 24.5 -58t-32.5 -62t-77 -26t-65.5 22t-21 56t29.5 62t73.5 28t68.5 -22z" />
    <glyph glyph-name="Agrave" unicode="&#xc0;" 
d="M119 -48q-58 0 -103 39t-45 102q0 93 97 177q47 41 123.5 68.5t169.5 32.5q36 91 92 277q1 4 1 14.5t-10 17.5v14q94 16 179 16l76 -4q10 -10 20 -44.5t13 -91.5t4 -263q110 -43 197 -104q-5 -19 -22.5 -38t-32.5 -29l-14 -9q-54 52 -127 93q5 -140 38 -140q11 0 24 5
l24 -55q-72 -42 -151 -42q-126 0 -126 151v143q-59 12 -115 15q-59 -152 -125 -241q-77 -104 -187 -104zM83 99q0 -25 12 -42t36 -17q35 0 72 42.5t73.5 110.5t52.5 103q-118 -14 -182 -75t-64 -122zM468 963q46 0 259 -149l-26 -48q-146 52 -309 91q36 106 76 106zM546 403
q0 164 -9 202q-1 1 -6 1t-6 -1q-2 -42 -68 -235q39 -3 89 -11v44z" />
    <glyph glyph-name="Aacute" unicode="&#xc1;" 
d="M119 -48q-58 0 -103 39t-45 102q0 93 97 177q47 41 123.5 68.5t169.5 32.5q36 91 92 277q1 4 1 14.5t-10 17.5v14q94 16 179 16l76 -4q10 -10 20 -44.5t13 -91.5t4 -263q110 -43 197 -104q-5 -19 -22.5 -38t-32.5 -29l-14 -9q-54 52 -127 93q5 -140 38 -140q11 0 24 5
l24 -55q-72 -42 -151 -42q-126 0 -126 151v143q-59 12 -115 15q-59 -152 -125 -241q-77 -104 -187 -104zM83 99q0 -25 12 -42t36 -17q35 0 72 42.5t73.5 110.5t52.5 103q-118 -14 -182 -75t-64 -122zM716 881q0 -35 -37 -51q-56 -26 -260 -62l-17 50q123 60 274 156
q11 -15 25.5 -47t14.5 -46zM546 403q0 164 -9 202q-1 1 -6 1t-6 -1q-2 -42 -68 -235q39 -3 89 -11v44z" />
    <glyph glyph-name="Acircumflex" unicode="&#xc2;" 
d="M119 -48q-58 0 -103 39t-45 102q0 93 97 177q47 41 123.5 68.5t169.5 32.5q36 91 92 277q1 4 1 14.5t-10 17.5v14q94 16 179 16l76 -4q10 -10 20 -44.5t13 -91.5t4 -263q110 -43 197 -104q-5 -19 -22.5 -38t-32.5 -29l-14 -9q-54 52 -127 93q5 -140 38 -140q11 0 24 5
l24 -55q-72 -42 -151 -42q-126 0 -126 151v143q-59 12 -115 15q-59 -152 -125 -241q-77 -104 -187 -104zM520.5 919.5q82.5 51.5 116 51.5t78.5 -60t67 -105l-42 -36q-90 59 -139 80q-78 -23 -190 -82l-32 47q59 53 141.5 104.5zM83 99q0 -25 12 -42t36 -17q35 0 72 42.5
t73.5 110.5t52.5 103q-118 -14 -182 -75t-64 -122zM546 403q0 164 -9 202q-1 1 -6 1t-6 -1q-2 -42 -68 -235q39 -3 89 -11v44z" />
    <glyph glyph-name="Atilde" unicode="&#xc3;" 
d="M119 -48q-58 0 -103 39t-45 102q0 93 97 177q47 41 123.5 68.5t169.5 32.5q36 91 92 277q1 4 1 14.5t-10 17.5v14q94 16 179 16l76 -4q10 -10 20 -44.5t13 -91.5t4 -263q110 -43 197 -104q-5 -19 -22.5 -38t-32.5 -29l-14 -9q-54 52 -127 93q5 -140 38 -140q11 0 24 5
l24 -55q-72 -42 -151 -42q-126 0 -126 151v143q-59 12 -115 15q-59 -152 -125 -241q-77 -104 -187 -104zM668 795q-21 0 -87 16t-87.5 16t-35.5 -9.5t-28 -35.5l-52 12q14 151 116 151q22 0 87.5 -16t88.5 -16t34.5 7.5t23.5 29.5l50 -10q-14 -145 -110 -145zM83 99
q0 -25 12 -42t36 -17q35 0 72 42.5t73.5 110.5t52.5 103q-118 -14 -182 -75t-64 -122zM546 403q0 164 -9 202q-1 1 -6 1t-6 -1q-2 -42 -68 -235q39 -3 89 -11v44z" />
    <glyph glyph-name="Adieresis" unicode="&#xc4;" 
d="M119 -48q-58 0 -103 39t-45 102q0 93 97 177q47 41 123.5 68.5t169.5 32.5q36 91 92 277q1 4 1 14.5t-10 17.5v14q94 16 179 16l76 -4q10 -10 20 -44.5t13 -91.5t4 -263q110 -43 197 -104q-5 -19 -22.5 -38t-32.5 -29l-14 -9q-54 52 -127 93q5 -140 38 -140q11 0 24 5
l24 -55q-72 -42 -151 -42q-126 0 -126 151v143q-59 12 -115 15q-59 -152 -125 -241q-77 -104 -187 -104zM83 99q0 -25 12 -42t36 -17q35 0 72 42.5t73.5 110.5t52.5 103q-118 -14 -182 -75t-64 -122zM617 817q-21 20 -21 51.5t26 53t63 21.5t57.5 -17.5t20.5 -49.5
t-25.5 -55.5t-62.5 -23.5t-58 20zM406 817q-21 20 -21 51.5t26 53t63 21.5t57.5 -17.5t20.5 -49.5t-25.5 -55.5t-62.5 -23.5t-58 20zM546 403q0 164 -9 202q-1 1 -6 1t-6 -1q-2 -42 -68 -235q39 -3 89 -11v44z" />
    <glyph glyph-name="Aring" unicode="&#xc5;" 
d="M119 -48q-58 0 -103 39t-45 102q0 93 97 177q47 41 123.5 68.5t169.5 32.5q36 91 92 277q1 4 1 14.5t-10 17.5v14q94 16 179 16l76 -4q10 -10 20 -44.5t13 -91.5t4 -263q110 -43 197 -104q-5 -19 -22.5 -38t-32.5 -29l-14 -9q-54 52 -127 93q5 -140 38 -140q11 0 24 5
l24 -55q-72 -42 -151 -42q-126 0 -126 151v143q-59 12 -115 15q-59 -152 -125 -241q-77 -104 -187 -104zM485 814.5q-31 31.5 -31 80t31 79t89 30.5t89 -30.5t31 -79t-31 -80t-89 -31.5t-89 31.5zM83 99q0 -25 12 -42t36 -17q35 0 72 42.5t73.5 110.5t52.5 103
q-118 -14 -182 -75t-64 -122zM546 403q0 164 -9 202q-1 1 -6 1t-6 -1q-2 -42 -68 -235q39 -3 89 -11v44zM529 894q0 -19 12 -31t33 -12q41 0 41 43t-41 43q-21 0 -33 -12t-12 -31z" />
    <glyph glyph-name="AE" unicode="&#xc6;" horiz-adv-x="1006" 
d="M738 299l1 -45q2 -101 16 -142.5t60 -41.5q64 0 142 74l49 -46q-55 -64 -138.5 -105t-164.5 -41t-121 50q-32 42 -39 141q-3 40 -3 100v73q-34 3 -55 3t-49 -2q-137 -365 -310 -365q-58 0 -106.5 37t-48.5 109q0 104 105 183.5t285 103.5q44 117 87 263q1 4 1 14.5
t-10 17.5v14q98 16 187 16h20l199 -4q63 0 115 4q3 -29 3 -60q0 -73 -51 -73q-12 0 -69 8.5t-75.5 8.5t-32.5 -2q0 -21 2 -207q99 -8 196 -28q4 -32 -7.5 -56t-18.5 -32l-7 -8q-73 27 -162 38zM83 103q0 -26 13.5 -44.5t35.5 -18.5q43 0 94.5 74.5t101.5 189.5
q-114 -24 -179.5 -80t-65.5 -121zM527 606q-5 0 -6 -1q1 -8 -17.5 -75t-41.5 -138q10 1 36 1t43 -1l2 76q-2 105 -9 137q-2 1 -7 1z" />
    <glyph glyph-name="Ccedilla" unicode="&#xc7;" horiz-adv-x="568" 
d="M295 -95q0 -18 15 -18q29 0 68 23l28 -41q-21 -24 -66 -45.5t-80.5 -21.5t-57.5 19.5t-22 50.5t23.5 63t54.5 55q-95 10 -152 83.5t-57 191.5t46 218.5t132 163.5t190 63q30 0 64 -9q72 46 143 46q36 0 67.5 -10.5t46.5 -25.5q-8 -38 -22 -65l-4 -9q-47 35 -101 35
q-28 0 -61 -12q46 -50 46 -139.5t-47 -166t-122 -76.5q-47 0 -77 38t-30 97q0 120 85 220q-68 -6 -113.5 -104.5t-45.5 -216.5q0 -215 107 -215q80 0 179 106l47 -40q-62 -92 -155 -141q-41 -21 -84 -29q-45 -48 -45 -88zM480.5 403.5q19.5 49.5 19.5 113.5t-27 93
q-83 -81 -83 -194q0 -30 11 -46t30 -16q30 0 49.5 49.5z" />
    <glyph glyph-name="Egrave" unicode="&#xc8;" horiz-adv-x="561" 
d="M582 680q-29 0 -59 -11q42 -36 42 -88.5t-30.5 -94.5t-75.5 -42t-71.5 28t-26.5 74t28 86q-37 -10 -61 -46.5t-24 -91.5t16 -93q35 5 73.5 5t71 -19.5t32.5 -54.5t-29 -59.5t-77 -24.5t-113 38q-34 -45 -34 -91.5t27 -72.5t71 -26q91 0 177 94l43 -36q-20 -32 -52.5 -64
t-62.5 -52t-76.5 -35t-95.5 -15q-93 0 -158 46.5t-65 143.5q0 57 37.5 103.5t99.5 77.5q-55 63 -55 141q0 99 77 154.5t178 55.5q38 0 69 -9q69 46 147.5 46t112.5 -41q-2 -35 -22 -58l-7 -8q-37 40 -107 40zM278 963q46 0 259 -149l-26 -48q-146 52 -309 91q36 106 76 106z
M486 564q0 44 -30 62q-29 -34 -29 -75.5t27 -41.5q14 0 23 15.5t9 39.5zM395 353q-20 0 -41 -8q22 -30 51 -30t29 18q0 20 -39 20z" />
    <glyph glyph-name="Eacute" unicode="&#xc9;" horiz-adv-x="561" 
d="M582 680q-29 0 -59 -11q42 -36 42 -88.5t-30.5 -94.5t-75.5 -42t-71.5 28t-26.5 74t28 86q-37 -10 -61 -46.5t-24 -91.5t16 -93q35 5 73.5 5t71 -19.5t32.5 -54.5t-29 -59.5t-77 -24.5t-113 38q-34 -45 -34 -91.5t27 -72.5t71 -26q91 0 177 94l43 -36q-20 -32 -52.5 -64
t-62.5 -52t-76.5 -35t-95.5 -15q-93 0 -158 46.5t-65 143.5q0 57 37.5 103.5t99.5 77.5q-55 63 -55 141q0 99 77 154.5t178 55.5q38 0 69 -9q69 46 147.5 46t112.5 -41q-2 -35 -22 -58l-7 -8q-37 40 -107 40zM564 881q0 -35 -37 -51q-56 -26 -260 -62l-17 50q123 60 274 156
q11 -15 25.5 -47t14.5 -46zM486 564q0 44 -30 62q-29 -34 -29 -75.5t27 -41.5q14 0 23 15.5t9 39.5zM395 353q-20 0 -41 -8q22 -30 51 -30t29 18q0 20 -39 20z" />
    <glyph glyph-name="Ecircumflex" unicode="&#xca;" horiz-adv-x="561" 
d="M582 680q-29 0 -59 -11q42 -36 42 -88.5t-30.5 -94.5t-75.5 -42t-71.5 28t-26.5 74t28 86q-37 -10 -61 -46.5t-24 -91.5t16 -93q35 5 73.5 5t71 -19.5t32.5 -54.5t-29 -59.5t-77 -24.5t-113 38q-34 -45 -34 -91.5t27 -72.5t71 -26q91 0 177 94l43 -36q-20 -32 -52.5 -64
t-62.5 -52t-76.5 -35t-95.5 -15q-93 0 -158 46.5t-65 143.5q0 57 37.5 103.5t99.5 77.5q-55 63 -55 141q0 99 77 154.5t178 55.5q38 0 69 -9q69 46 147.5 46t112.5 -41q-2 -35 -22 -58l-7 -8q-37 40 -107 40zM325.5 919.5q82.5 51.5 116 51.5t78.5 -60t67 -105l-42 -36
q-90 59 -139 80q-78 -23 -190 -82l-32 47q59 53 141.5 104.5zM486 564q0 44 -30 62q-29 -34 -29 -75.5t27 -41.5q14 0 23 15.5t9 39.5zM395 353q-20 0 -41 -8q22 -30 51 -30t29 18q0 20 -39 20z" />
    <glyph glyph-name="Edieresis" unicode="&#xcb;" horiz-adv-x="561" 
d="M582 680q-29 0 -59 -11q42 -36 42 -88.5t-30.5 -94.5t-75.5 -42t-71.5 28t-26.5 74t28 86q-37 -10 -61 -46.5t-24 -91.5t16 -93q35 5 73.5 5t71 -19.5t32.5 -54.5t-29 -59.5t-77 -24.5t-113 38q-34 -45 -34 -91.5t27 -72.5t71 -26q91 0 177 94l43 -36q-20 -32 -52.5 -64
t-62.5 -52t-76.5 -35t-95.5 -15q-93 0 -158 46.5t-65 143.5q0 57 37.5 103.5t99.5 77.5q-55 63 -55 141q0 99 77 154.5t178 55.5q38 0 69 -9q69 46 147.5 46t112.5 -41q-2 -35 -22 -58l-7 -8q-37 40 -107 40zM436 817q-21 20 -21 51.5t26 53t63 21.5t57.5 -17.5t20.5 -49.5
t-25.5 -55.5t-62.5 -23.5t-58 20zM225 817q-21 20 -21 51.5t26 53t63 21.5t57.5 -17.5t20.5 -49.5t-25.5 -55.5t-62.5 -23.5t-58 20zM486 564q0 44 -30 62q-29 -34 -29 -75.5t27 -41.5q14 0 23 15.5t9 39.5zM395 353q-20 0 -41 -8q22 -30 51 -30t29 18q0 20 -39 20z" />
    <glyph glyph-name="Igrave" unicode="&#xcc;" horiz-adv-x="454" 
d="M418 640.5q32 -56.5 32 -151t-19.5 -184.5t-56 -167t-95.5 -126t-127.5 -49t-106.5 39.5t-38 102.5t62 134.5t187 119.5q10 60 10 122.5t-9 85.5t-36 23q-42 0 -125 -59l-38 52q128 114 246 114q82 0 114 -56.5zM84 114q0 -21 12.5 -37t32.5 -16q37 0 69 61t49 157
q-74 -27 -118.5 -76t-44.5 -89zM206 963q46 0 259 -149l-26 -48q-146 52 -309 91q36 106 76 106z" />
    <glyph glyph-name="Iacute" unicode="&#xcd;" horiz-adv-x="439" 
d="M418 640.5q32 -56.5 32 -151t-19.5 -184.5t-56 -167t-95.5 -126t-127.5 -49t-106.5 39.5t-38 102.5t62 134.5t187 119.5q10 60 10 122.5t-9 85.5t-36 23q-42 0 -125 -59l-38 52q128 114 246 114q82 0 114 -56.5zM84 114q0 -21 12.5 -37t32.5 -16q37 0 69 61t49 157
q-74 -27 -118.5 -76t-44.5 -89zM437 881q0 -35 -37 -51q-56 -26 -260 -62l-17 50q123 60 274 156q11 -15 25.5 -47t14.5 -46z" />
    <glyph glyph-name="Icircumflex" unicode="&#xce;" horiz-adv-x="443" 
d="M418 640.5q32 -56.5 32 -151t-19.5 -184.5t-56 -167t-95.5 -126t-127.5 -49t-106.5 39.5t-38 102.5t62 134.5t187 119.5q10 60 10 122.5t-9 85.5t-36 23q-42 0 -125 -59l-38 52q128 114 246 114q82 0 114 -56.5zM84 114q0 -21 12.5 -37t32.5 -16q37 0 69 61t49 157
q-74 -27 -118.5 -76t-44.5 -89zM209.5 919.5q82.5 51.5 116 51.5t78.5 -60t67 -105l-42 -36q-90 59 -139 80q-78 -23 -190 -82l-32 47q59 53 141.5 104.5z" />
    <glyph glyph-name="Idieresis" unicode="&#xcf;" horiz-adv-x="439" 
d="M418 640.5q32 -56.5 32 -151t-19.5 -184.5t-56 -167t-95.5 -126t-127.5 -49t-106.5 39.5t-38 102.5t62 134.5t187 119.5q10 60 10 122.5t-9 85.5t-36 23q-42 0 -125 -59l-38 52q128 114 246 114q82 0 114 -56.5zM84 114q0 -21 12.5 -37t32.5 -16q37 0 69 61t49 157
q-74 -27 -118.5 -76t-44.5 -89zM116 817q-21 20 -21 51.5t26 53t63 21.5t57.5 -17.5t20.5 -49.5t-25.5 -55.5t-62.5 -23.5t-58 20zM327 817q-21 20 -21 51.5t26 53t63 21.5t57.5 -17.5t20.5 -49.5t-25.5 -55.5t-62.5 -23.5t-58 20z" />
    <glyph glyph-name="Eth" unicode="&#xd0;" horiz-adv-x="824" 
d="M57 147.5q33 26.5 74.5 26.5t89.5 -20q4 11 13 43t10 41q-208 50 -208 204q0 123 127 201.5t300 78.5q149 0 249 -67q51 -34 80 -94t29 -151.5t-42.5 -190.5t-123 -165.5t-178 -66.5t-200.5 62q-69 -61 -140 -61q-49 0 -81 26.5t-32 66.5t33 66.5zM421 644
q-119 0 -213 -62t-94 -137q0 -97 146 -129q24 123 24 173q0 27 -22 51v14q66 30 165 30l52 -4q6 -11 6 -45q0 -107 -47 -232q65 6 102 21q6 -18 6 -36q0 -36 -11 -58q-28 -9 -133 -9q-32 -65 -73 -117q64 -31 108.5 -31t82.5 41t60 102q44 125 44 230q0 198 -203 198z
M111 89q0 -26 30.5 -26t53.5 36q-31 17 -47.5 17t-26.5 -7.5t-10 -19.5z" />
    <glyph glyph-name="Ntilde" unicode="&#xd1;" horiz-adv-x="817" 
d="M319 697q94 0 121 -90q45 33 68 48t71.5 35t99 20t85.5 -31.5t35 -89.5t-43 -229.5t-43 -237.5q0 -29 15 -29q17 0 47 12l21 -51q-92 -66 -181 -66q-47 0 -72.5 26t-25.5 76t41.5 220.5t41.5 219t-37 48.5t-111 -50q2 -28 2 -43q0 -144 -39.5 -264t-108.5 -189t-152 -69
q-62 0 -99.5 40t-37.5 115t65 177t187 208q0 50 -8.5 69t-26.5 19q-43 0 -129 -62l-40 50q47 45 117.5 81.5t136.5 36.5zM650 795q-21 0 -87 16t-87.5 16t-35.5 -9.5t-28 -35.5l-52 12q14 151 116 151q22 0 87.5 -16t88.5 -16t34.5 7.5t23.5 29.5l50 -10q-14 -145 -110 -145
zM95 122q0 -27 12 -44t31 -17q48 0 86.5 98.5t45.5 249.5q-73 -62 -124 -145.5t-51 -141.5z" />
    <glyph glyph-name="Ograve" unicode="&#xd2;" horiz-adv-x="660" 
d="M312 62q42 0 75 45.5t50 118.5q-154 27 -154 202q0 107 55.5 182t140 75t131.5 -67.5t47 -174.5q0 -58 -23 -142q47 6 94 32l17 9q19 -30 22 -68l1 -14q-22 -13 -69 -27t-90 -17q-45 -103 -126.5 -165.5t-202.5 -62.5t-184.5 77.5t-63.5 214t67 251t194 178.5l34 -54
q-58 -77 -78 -165t-20 -212q0 -216 83 -216zM432 578q-23 0 -45.5 -40t-22.5 -98t23.5 -93t63.5 -40q13 84 13 177.5t-32 93.5zM296 963q46 0 259 -149l-26 -48q-146 52 -309 91q36 106 76 106z" />
    <glyph glyph-name="Oacute" unicode="&#xd3;" horiz-adv-x="660" 
d="M312 62q42 0 75 45.5t50 118.5q-154 27 -154 202q0 107 55.5 182t140 75t131.5 -67.5t47 -174.5q0 -58 -23 -142q47 6 94 32l17 9q19 -30 22 -68l1 -14q-22 -13 -69 -27t-90 -17q-45 -103 -126.5 -165.5t-202.5 -62.5t-184.5 77.5t-63.5 214t67 251t194 178.5l34 -54
q-58 -77 -78 -165t-20 -212q0 -216 83 -216zM432 578q-23 0 -45.5 -40t-22.5 -98t23.5 -93t63.5 -40q13 84 13 177.5t-32 93.5zM601 881q0 -35 -37 -51q-56 -26 -260 -62l-17 50q123 60 274 156q11 -15 25.5 -47t14.5 -46z" />
    <glyph glyph-name="Ocircumflex" unicode="&#xd4;" horiz-adv-x="660" 
d="M312 62q42 0 75 45.5t50 118.5q-154 27 -154 202q0 107 55.5 182t140 75t131.5 -67.5t47 -174.5q0 -58 -23 -142q47 6 94 32l17 9q19 -30 22 -68l1 -14q-22 -13 -69 -27t-90 -17q-45 -103 -126.5 -165.5t-202.5 -62.5t-184.5 77.5t-63.5 214t67 251t194 178.5l34 -54
q-58 -77 -78 -165t-20 -212q0 -216 83 -216zM432 578q-23 0 -45.5 -40t-22.5 -98t23.5 -93t63.5 -40q13 84 13 177.5t-32 93.5zM355.5 912.5q82.5 51.5 116 51.5t78.5 -60t67 -105l-42 -36q-90 59 -139 80q-78 -23 -190 -82l-32 47q59 53 141.5 104.5z" />
    <glyph glyph-name="Otilde" unicode="&#xd5;" horiz-adv-x="660" 
d="M312 62q42 0 75 45.5t50 118.5q-154 27 -154 202q0 107 55.5 182t140 75t131.5 -67.5t47 -174.5q0 -58 -23 -142q47 6 94 32l17 9q19 -30 22 -68l1 -14q-22 -13 -69 -27t-90 -17q-45 -103 -126.5 -165.5t-202.5 -62.5t-184.5 77.5t-63.5 214t67 251t194 178.5l34 -54
q-58 -77 -78 -165t-20 -212q0 -216 83 -216zM432 578q-23 0 -45.5 -40t-22.5 -98t23.5 -93t63.5 -40q13 84 13 177.5t-32 93.5zM523 795q-21 0 -87 16t-87.5 16t-35.5 -9.5t-28 -35.5l-52 12q14 151 116 151q22 0 87.5 -16t88.5 -16t34.5 7.5t23.5 29.5l50 -10
q-14 -145 -110 -145z" />
    <glyph glyph-name="Odieresis" unicode="&#xd6;" horiz-adv-x="660" 
d="M312 62q42 0 75 45.5t50 118.5q-154 27 -154 202q0 107 55.5 182t140 75t131.5 -67.5t47 -174.5q0 -58 -23 -142q47 6 94 32l17 9q19 -30 22 -68l1 -14q-22 -13 -69 -27t-90 -17q-45 -103 -126.5 -165.5t-202.5 -62.5t-184.5 77.5t-63.5 214t67 251t194 178.5l34 -54
q-58 -77 -78 -165t-20 -212q0 -216 83 -216zM432 578q-23 0 -45.5 -40t-22.5 -98t23.5 -93t63.5 -40q13 84 13 177.5t-32 93.5zM263 817q-21 20 -21 51.5t26 53t63 21.5t57.5 -17.5t20.5 -49.5t-25.5 -55.5t-62.5 -23.5t-58 20zM474 817q-21 20 -21 51.5t26 53t63 21.5
t57.5 -17.5t20.5 -49.5t-25.5 -55.5t-62.5 -23.5t-58 20z" />
    <glyph glyph-name="multiply" unicode="&#xd7;" horiz-adv-x="511" 
d="M388 91l-129 128l-128 -128q-51 47 -61 70l124 124l-122 122q18 26 63 69l124 -125l125 125q45 -43 63 -69l-122 -122l124 -124q-14 -26 -61 -70z" />
    <glyph glyph-name="Oslash" unicode="&#xd8;" horiz-adv-x="646" 
d="M561 776q-7 -16 -37 -94q67 -34 99.5 -100t32.5 -140.5t-21.5 -150.5t-64 -145.5t-117.5 -113.5t-171 -44q-13 0 -33 2l-34 -94q-14 1 -40 10q-27 8 -43 18q15 45 33 90q-65 32 -99.5 100t-34.5 170t45.5 201.5t130 162t188.5 62.5q23 0 42 -3q5 12 37 95q26 -2 53 -11
t34 -15zM311 64q40 0 70.5 40.5t46.5 104.5q33 126 33 261q0 15 -2 51q-123 -304 -180 -451q13 -6 32 -6zM228 181l178 448q-12 5 -25 5q-38 0 -68.5 -35.5t-48.5 -92.5q-37 -116 -37 -249q0 -65 1 -76z" />
    <glyph glyph-name="Ugrave" unicode="&#xd9;" horiz-adv-x="759" 
d="M362 354.5q-53 -162.5 -53 -203.5t34.5 -41t90.5 52q4 56 18 125q44 223 107 323t147 100q53 0 79.5 -27.5t26.5 -72.5q0 -79 -55.5 -180.5t-131.5 -191.5q-2 -40 -2 -71.5t5 -58.5t23 -27q15 0 39 8l18 -52q-77 -49 -148 -49q-99 0 -121 85q-114 -86 -211 -86
q-54 0 -84.5 32t-30.5 83t50 216q-160 75 -160 184q0 61 42.5 110.5t99 73.5t120.5 24t107 -32.5t43 -96.5t-53 -226.5zM312 963q46 0 259 -149l-26 -48q-146 52 -309 91q36 106 76 106zM219 569q0 51 -37 51q-34 0 -66 -32t-32 -74q0 -79 101 -118q34 108 34 173zM726 626
q-21 0 -45 -82t-41 -190q37 58 66.5 138t29.5 107t-10 27z" />
    <glyph glyph-name="Uacute" unicode="&#xda;" horiz-adv-x="759" 
d="M362 354.5q-53 -162.5 -53 -203.5t34.5 -41t90.5 52q4 56 18 125q44 223 107 323t147 100q53 0 79.5 -27.5t26.5 -72.5q0 -79 -55.5 -180.5t-131.5 -191.5q-2 -40 -2 -71.5t5 -58.5t23 -27q15 0 39 8l18 -52q-77 -49 -148 -49q-99 0 -121 85q-114 -86 -211 -86
q-54 0 -84.5 32t-30.5 83t50 216q-160 75 -160 184q0 61 42.5 110.5t99 73.5t120.5 24t107 -32.5t43 -96.5t-53 -226.5zM706 881q0 -35 -37 -51q-56 -26 -260 -62l-17 50q123 60 274 156q11 -15 25.5 -47t14.5 -46zM219 569q0 51 -37 51q-34 0 -66 -32t-32 -74
q0 -79 101 -118q34 108 34 173zM726 626q-21 0 -45 -82t-41 -190q37 58 66.5 138t29.5 107t-10 27z" />
    <glyph glyph-name="Ucircumflex" unicode="&#xdb;" horiz-adv-x="759" 
d="M362 354.5q-53 -162.5 -53 -203.5t34.5 -41t90.5 52q4 56 18 125q44 223 107 323t147 100q53 0 79.5 -27.5t26.5 -72.5q0 -79 -55.5 -180.5t-131.5 -191.5q-2 -40 -2 -71.5t5 -58.5t23 -27q15 0 39 8l18 -52q-77 -49 -148 -49q-99 0 -121 85q-114 -86 -211 -86
q-54 0 -84.5 32t-30.5 83t50 216q-160 75 -160 184q0 61 42.5 110.5t99 73.5t120.5 24t107 -32.5t43 -96.5t-53 -226.5zM430.5 919.5q82.5 51.5 116 51.5t78.5 -60t67 -105l-42 -36q-90 59 -139 80q-78 -23 -190 -82l-32 47q59 53 141.5 104.5zM219 569q0 51 -37 51
q-34 0 -66 -32t-32 -74q0 -79 101 -118q34 108 34 173zM726 626q-21 0 -45 -82t-41 -190q37 58 66.5 138t29.5 107t-10 27z" />
    <glyph glyph-name="Udieresis" unicode="&#xdc;" horiz-adv-x="759" 
d="M362 354.5q-53 -162.5 -53 -203.5t34.5 -41t90.5 52q4 56 18 125q44 223 107 323t147 100q53 0 79.5 -27.5t26.5 -72.5q0 -79 -55.5 -180.5t-131.5 -191.5q-2 -40 -2 -71.5t5 -58.5t23 -27q15 0 39 8l18 -52q-77 -49 -148 -49q-99 0 -121 85q-114 -86 -211 -86
q-54 0 -84.5 32t-30.5 83t50 216q-160 75 -160 184q0 61 42.5 110.5t99 73.5t120.5 24t107 -32.5t43 -96.5t-53 -226.5zM219 569q0 51 -37 51q-34 0 -66 -32t-32 -74q0 -79 101 -118q34 108 34 173zM555 817q-21 20 -21 51.5t26 53t63 21.5t57.5 -17.5t20.5 -49.5
t-25.5 -55.5t-62.5 -23.5t-58 20zM344 817q-21 20 -21 51.5t26 53t63 21.5t57.5 -17.5t20.5 -49.5t-25.5 -55.5t-62.5 -23.5t-58 20zM726 626q-21 0 -45 -82t-41 -190q37 58 66.5 138t29.5 107t-10 27z" />
    <glyph glyph-name="Yacute" unicode="&#xdd;" horiz-adv-x="783" 
d="M826 606q0 -68 -52 -168.5t-130 -175.5q-26 -126 -56 -209q84 0 166 -13q0 -45 -30 -96q-85 22 -171 26q-95 -194 -265 -194q-63 0 -99.5 25t-36.5 70q0 57 63 104t194 75l16 56q-103 -58 -186 -58q-49 0 -77.5 25t-28.5 69t38 176q-163 75 -163 186q0 60 42 108.5
t101 73t121 24.5t107 -32.5t45 -91.5t-47.5 -207.5t-47.5 -173.5q0 -32 32.5 -32t87.5 37l10 53q28 156 42 200.5t26.5 80.5t25 56.5t30 44.5t36.5 36q46 29 98.5 29t80.5 -28.5t28 -75.5zM701 881q0 -35 -37 -51q-56 -26 -260 -62l-17 50q123 60 274 156q11 -15 25.5 -47
t14.5 -46zM192 396q36 114 36 169t-37 55t-69.5 -30t-32.5 -77q0 -76 103 -117zM255 -111q0 -20 27 -20t56 28.5t51 73.5q-60 -11 -97 -35.5t-37 -46.5zM738 626q-16 0 -29 -48q-20 -77 -38 -182q29 44 53 109.5t24 93t-10 27.5z" />
    <glyph glyph-name="Thorn" unicode="&#xde;" horiz-adv-x="584" 
d="M54 -3h-13q0 49 58 295t58 297q0 16 -10.5 37t-20.5 34l-10 13l3 20q56 17 220 17q18 -16 18 -73q0 -8 -4 -40q10 1 29 1q225 0 225 -170q0 -112 -81.5 -189.5t-235.5 -77.5h-32q-16 -86 -16 -144q-46 -20 -188 -20zM399.5 500.5q-12.5 23.5 -31 23.5t-31.5 -5
q-61 -264 -63 -274h4q62 0 98 54.5t36 140.5q0 37 -12.5 60.5z" />
    <glyph glyph-name="germandbls" unicode="&#xdf;" horiz-adv-x="663" 
d="M669 154q0 -75 -64 -120t-147 -45q-54 0 -108 28.5t-54 53.5q0 18 35 57t64 46q19 -6 46.5 -35t49.5 -73q26 4 26 22q0 42 -89 128q-33 32 -61 76.5t-28 76.5t12 49.5t29 31t34 30.5q42 39 42 119q0 31 -12 48.5t-34 17.5q-40 0 -69 -114.5t-44 -256.5t-42 -278.5
t-63 -170.5q-39 0 -91.5 10t-75.5 22q64 183 100 475q-51 -3 -78 -9q-1 12 -1 30t7 58h84q35 174 102.5 237t199.5 63q113 0 167 -51q31 -30 31 -70t-19 -70t-42.5 -46t-42.5 -37t-19 -43t24 -53.5t53.5 -60t53.5 -69t24 -77.5z" />
    <glyph glyph-name="agrave" unicode="&#xe0;" horiz-adv-x="531" 
d="M231 696q46 0 259 -149l-26 -48q-146 52 -309 91q36 106 76 106zM482 250.5q-15 -89.5 -15 -125t11 -35.5l50 14l18 -50q-32 -25 -81.5 -45.5t-87.5 -20.5q-65 0 -82 56q-79 -56 -139.5 -56t-93.5 44t-33 126q0 113 58 199t153 86q52 0 106 -29q8 18 13 26q72 0 159 -35
q-21 -65 -36 -154.5zM224 107q7 -13 26 -13t37 15q4 116 38 243q-15 9 -34.5 9t-35 -22t-23.5 -55q-15 -63 -15 -113.5t7 -63.5z" />
    <glyph glyph-name="aacute" unicode="&#xe1;" horiz-adv-x="531" 
d="M516 614q0 -35 -37 -51q-56 -26 -260 -62l-17 50q123 60 274 156q11 -15 25.5 -47t14.5 -46zM482 250.5q-15 -89.5 -15 -125t11 -35.5l50 14l18 -50q-32 -25 -81.5 -45.5t-87.5 -20.5q-65 0 -82 56q-79 -56 -139.5 -56t-93.5 44t-33 126q0 113 58 199t153 86
q52 0 106 -29q8 18 13 26q72 0 159 -35q-21 -65 -36 -154.5zM224 107q7 -13 26 -13t37 15q4 116 38 243q-15 9 -34.5 9t-35 -22t-23.5 -55q-15 -63 -15 -113.5t7 -63.5z" />
    <glyph glyph-name="acircumflex" unicode="&#xe2;" horiz-adv-x="531" 
d="M283.5 652.5q82.5 51.5 116 51.5t78.5 -60t67 -105l-42 -36q-90 59 -139 80q-78 -23 -190 -82l-32 47q59 53 141.5 104.5zM482 250.5q-15 -89.5 -15 -125t11 -35.5l50 14l18 -50q-32 -25 -81.5 -45.5t-87.5 -20.5q-65 0 -82 56q-79 -56 -139.5 -56t-93.5 44t-33 126
q0 113 58 199t153 86q52 0 106 -29q8 18 13 26q72 0 159 -35q-21 -65 -36 -154.5zM224 107q7 -13 26 -13t37 15q4 116 38 243q-15 9 -34.5 9t-35 -22t-23.5 -55q-15 -63 -15 -113.5t7 -63.5z" />
    <glyph glyph-name="atilde" unicode="&#xe3;" horiz-adv-x="526" 
d="M441 528q-21 0 -87 16t-87.5 16t-35.5 -9.5t-28 -35.5l-52 12q14 151 116 151q22 0 87.5 -16t88.5 -16t34.5 7.5t23.5 29.5l50 -10q-14 -145 -110 -145zM482 250.5q-15 -89.5 -15 -125t11 -35.5l50 14l18 -50q-32 -25 -81.5 -45.5t-87.5 -20.5q-65 0 -82 56
q-79 -56 -139.5 -56t-93.5 44t-33 126q0 113 58 199t153 86q52 0 106 -29q8 18 13 26q72 0 159 -35q-21 -65 -36 -154.5zM224 107q7 -13 26 -13t37 15q4 116 38 243q-15 9 -34.5 9t-35 -22t-23.5 -55q-15 -63 -15 -113.5t7 -63.5z" />
    <glyph glyph-name="adieresis" unicode="&#xe4;" horiz-adv-x="531" 
d="M166 550q-21 20 -21 51.5t26 53t63 21.5t57.5 -17.5t20.5 -49.5t-25.5 -55.5t-62.5 -23.5t-58 20zM377 550q-21 20 -21 51.5t26 53t63 21.5t57.5 -17.5t20.5 -49.5t-25.5 -55.5t-62.5 -23.5t-58 20zM482 250.5q-15 -89.5 -15 -125t11 -35.5l50 14l18 -50
q-32 -25 -81.5 -45.5t-87.5 -20.5q-65 0 -82 56q-79 -56 -139.5 -56t-93.5 44t-33 126q0 113 58 199t153 86q52 0 106 -29q8 18 13 26q72 0 159 -35q-21 -65 -36 -154.5zM224 107q7 -13 26 -13t37 15q4 116 38 243q-15 9 -34.5 9t-35 -22t-23.5 -55q-15 -63 -15 -113.5
t7 -63.5z" />
    <glyph glyph-name="aring" unicode="&#xe5;" horiz-adv-x="531" 
d="M248 547.5q-31 31.5 -31 80t31 79t89 30.5t89 -30.5t31 -79t-31 -80t-89 -31.5t-89 31.5zM292 627q0 -19 12 -31t33 -12q41 0 41 43t-41 43q-21 0 -33 -12t-12 -31zM482 250.5q-15 -89.5 -15 -125t11 -35.5l50 14l18 -50q-32 -25 -81.5 -45.5t-87.5 -20.5q-65 0 -82 56
q-79 -56 -139.5 -56t-93.5 44t-33 126q0 113 58 199t153 86q52 0 106 -29q8 18 13 26q72 0 159 -35q-21 -65 -36 -154.5zM224 107q7 -13 26 -13t37 15q4 116 38 243q-15 9 -34.5 9t-35 -22t-23.5 -55q-15 -63 -15 -113.5t7 -63.5z" />
    <glyph glyph-name="ae" unicode="&#xe6;" horiz-adv-x="664" 
d="M223 443q53 0 105 -30q5 13 13 27q54 -2 99 -15q46 18 107.5 18t100.5 -29t39 -73.5t-23 -74t-56 -45.5q-70 -35 -119 -41l-23 -3q0 -44 19 -69t47 -25t52.5 9.5t37.5 19.5l13 10l29 -49q-4 -3 -10.5 -9t-29 -20.5t-46.5 -25.5q-60 -30 -132 -30q-92 0 -134 63
q-85 -63 -160 -63q-48 0 -85.5 40.5t-37.5 125.5q0 134 56 211.5t138 77.5zM283 173q0 87 26 180q-22 9 -35 9q-26 0 -43 -60t-17 -134t32 -74q17 0 44 16q-7 28 -7 63zM514.5 274q20.5 30 20.5 67.5t-21 37.5q-25 0 -36.5 -51.5t-11.5 -91.5q28 8 48.5 38z" />
    <glyph glyph-name="ccedilla" unicode="&#xe7;" horiz-adv-x="424" 
d="M282 376q-31 0 -53 -55t-22 -111q0 -123 71 -123q45 0 102 43l32 -44q-77 -83 -188 -96q-41 -47 -41 -85q0 -18 15 -18q29 0 68 23l28 -41q-21 -24 -66 -45.5t-80.5 -21.5t-57.5 19.5t-22 51t25 64t57 56.5q-59 12 -94.5 58.5t-35.5 127.5q0 116 71.5 190t187.5 74
q75 0 118 -30.5t43 -77t-28 -80.5q-33 0 -71.5 12.5t-61.5 31.5l15 75q-6 2 -12 2z" />
    <glyph glyph-name="egrave" unicode="&#xe8;" horiz-adv-x="436" 
d="M20 177q0 128 75.5 197t188.5 69q75 0 121.5 -33.5t46.5 -88.5q0 -40 -25 -72t-61 -49q-72 -34 -132 -42l-25 -4q11 -66 68 -66q22 0 50.5 10.5t46.5 21.5l17 10l32 -43l-11 -11q-6 -6 -28.5 -23.5t-47.5 -30.5q-64 -34 -143 -34t-126 49t-47 140zM292 347q0 23 -18 23
q-24 0 -45 -39.5t-24 -110.5q29 4 58 47.5t29 79.5zM183 696q46 0 259 -149l-26 -48q-146 52 -309 91q36 106 76 106z" />
    <glyph glyph-name="eacute" unicode="&#xe9;" horiz-adv-x="437" 
d="M20 177q0 128 75.5 197t188.5 69q75 0 121.5 -33.5t46.5 -88.5q0 -40 -25 -72t-61 -49q-72 -34 -132 -42l-25 -4q11 -66 68 -66q22 0 50.5 10.5t46.5 21.5l17 10l32 -43l-11 -11q-6 -6 -28.5 -23.5t-47.5 -30.5q-64 -34 -143 -34t-126 49t-47 140zM292 347q0 23 -18 23
q-24 0 -45 -39.5t-24 -110.5q29 4 58 47.5t29 79.5zM453 614q0 -35 -37 -51q-56 -26 -260 -62l-17 50q123 60 274 156q11 -15 25.5 -47t14.5 -46z" />
    <glyph glyph-name="ecircumflex" unicode="&#xea;" horiz-adv-x="437" 
d="M20 177q0 128 75.5 197t188.5 69q75 0 121.5 -33.5t46.5 -88.5q0 -40 -25 -72t-61 -49q-72 -34 -132 -42l-25 -4q11 -66 68 -66q22 0 50.5 10.5t46.5 21.5l17 10l32 -43l-11 -11q-6 -6 -28.5 -23.5t-47.5 -30.5q-64 -34 -143 -34t-126 49t-47 140zM292 347q0 23 -18 23
q-24 0 -45 -39.5t-24 -110.5q29 4 58 47.5t29 79.5zM227.5 652.5q82.5 51.5 116 51.5t78.5 -60t67 -105l-42 -36q-90 59 -139 80q-78 -23 -190 -82l-32 47q59 53 141.5 104.5z" />
    <glyph glyph-name="edieresis" unicode="&#xeb;" horiz-adv-x="437" 
d="M20 177q0 128 75.5 197t188.5 69q75 0 121.5 -33.5t46.5 -88.5q0 -40 -25 -72t-61 -49q-72 -34 -132 -42l-25 -4q11 -66 68 -66q22 0 50.5 10.5t46.5 21.5l17 10l32 -43l-11 -11q-6 -6 -28.5 -23.5t-47.5 -30.5q-64 -34 -143 -34t-126 49t-47 140zM292 347q0 23 -18 23
q-24 0 -45 -39.5t-24 -110.5q29 4 58 47.5t29 79.5zM121 550q-21 20 -21 51.5t26 53t63 21.5t57.5 -17.5t20.5 -49.5t-25.5 -55.5t-62.5 -23.5t-58 20zM332 550q-21 20 -21 51.5t26 53t63 21.5t57.5 -17.5t20.5 -49.5t-25.5 -55.5t-62.5 -23.5t-58 20z" />
    <glyph glyph-name="igrave" unicode="&#xec;" horiz-adv-x="300" 
d="M115 695q20 0 64 -26t78 -51.5t93 -71.5l-26 -48q-186 72 -285 95q35 102 76 102zM244 238.5q-25 -92.5 -25 -120.5t11 -28t40 10l9 4l18 -50q-34 -26 -84.5 -46t-91.5 -20t-64.5 23t-23.5 66.5t24.5 133t24.5 113.5q0 37 -26 70l-8 11l3 17q52 16 202 16
q16 -18 16 -62.5t-25 -137z" />
    <glyph glyph-name="iacute" unicode="&#xed;" horiz-adv-x="300" 
d="M357 616q0 -34 -37 -50q-28 -12 -104 -32t-138 -30l-17 50q135 70 256 150q11 -16 25.5 -45.5t14.5 -42.5zM244 238.5q-25 -92.5 -25 -120.5t11 -28t40 10l9 4l18 -50q-34 -26 -84.5 -46t-91.5 -20t-64.5 23t-23.5 66.5t24.5 133t24.5 113.5q0 37 -26 70l-8 11l3 17
q52 16 202 16q16 -18 16 -62.5t-25 -137z" />
    <glyph glyph-name="icircumflex" unicode="&#xee;" horiz-adv-x="300" 
d="M241 704q22 0 65 -62t62 -103l-42 -36q-92 66 -122 80q-61 -20 -168 -82l-32 47q56 55 129.5 105.5t107.5 50.5zM244 238.5q-25 -92.5 -25 -120.5t11 -28t40 10l9 4l18 -50q-34 -26 -84.5 -46t-91.5 -20t-64.5 23t-23.5 66.5t24.5 133t24.5 113.5q0 37 -26 70l-8 11l3 17
q52 16 202 16q16 -18 16 -62.5t-25 -137z" />
    <glyph glyph-name="idieresis" unicode="&#xef;" horiz-adv-x="300" 
d="M57 550q-19 20 -19 51.5t24 53t57.5 21.5t52 -17.5t18.5 -49.5t-23 -55.5t-57 -23.5t-53 20zM242 550q-19 20 -19 51.5t24 53t57.5 21.5t52 -17.5t18.5 -49.5t-23.5 -55.5t-57 -23.5t-52.5 20zM244 238.5q-25 -92.5 -25 -120.5t11 -28t40 10l9 4l18 -50
q-34 -26 -84.5 -46t-91.5 -20t-64.5 23t-23.5 66.5t24.5 133t24.5 113.5q0 37 -26 70l-8 11l3 17q52 16 202 16q16 -18 16 -62.5t-25 -137z" />
    <glyph glyph-name="eth" unicode="&#xf0;" horiz-adv-x="490" 
d="M497 301q0 -172 -118 -264q-63 -49 -157.5 -49t-148.5 58.5t-54 149.5t65.5 169t168.5 78q23 0 42 -4q-10 56 -27 96l-117 -35q-8 8 -15 30t-7 38l107 31q-32 51 -85 95l27 40q96 -28 174 -100l128 38q5 -7 10.5 -33t5.5 -35l-92 -28q93 -126 93 -275zM306 298
q0 23 -2 69h-6q-32 0 -56 -31q-45 -60 -45 -170q0 -41 10.5 -71t29.5 -30q34 0 51.5 69.5t17.5 163.5z" />
    <glyph glyph-name="ntilde" unicode="&#xf1;" horiz-adv-x="554" 
d="M433 522q-21 0 -87 16t-87.5 16t-35.5 -9.5t-28 -35.5l-52 12q14 151 116 151q22 0 87.5 -16t88.5 -16t34.5 7.5t23.5 29.5l50 -10q-14 -145 -110 -145zM52 -6h-17q0 62 28.5 188t28.5 145t-9 37t-18 27l-9 9l2 15q59 19 206 19q10 -23 14 -48q91 56 153 56
q42 0 66 -27.5t24 -66t-22 -123.5t-22 -110.5t7 -25.5l53 14l18 -50q-32 -24 -83.5 -44.5t-94.5 -20.5q-85 0 -85 88q0 38 21 124t21 107.5t-14 21.5q-18 0 -48 -20q-4 -18 -20 -87q-32 -145 -32 -209q-49 -19 -168 -19z" />
    <glyph glyph-name="ograve" unicode="&#xf2;" horiz-adv-x="446" 
d="M204 696q46 0 259 -149l-26 -48q-146 52 -309 91q36 106 76 106zM188 -12q-78 0 -123 49.5t-45 139.5q0 110 65 186.5t171 76.5l45 -4q24 7 45 7q50 0 71.5 -34t24.5 -97q42 2 80 13l14 4q7 -7 10 -42l1 -11q-45 -23 -110 -36q-22 -106 -87 -179t-162 -73zM208 181
q0 -93 47 -93q33 0 67.5 42t47.5 102q-102 0 -102 98q0 17 3 35q-10 0 -15 -3q-17 -18 -32.5 -72.5t-15.5 -108.5z" />
    <glyph glyph-name="oacute" unicode="&#xf3;" horiz-adv-x="446" 
d="M467 614q0 -35 -37 -51q-56 -26 -260 -62l-17 50q123 60 274 156q11 -15 25.5 -47t14.5 -46zM188 -12q-78 0 -123 49.5t-45 139.5q0 110 65 186.5t171 76.5l45 -4q24 7 45 7q50 0 71.5 -34t24.5 -97q42 2 80 13l14 4q7 -7 10 -42l1 -11q-45 -23 -110 -36
q-22 -106 -87 -179t-162 -73zM208 181q0 -93 47 -93q33 0 67.5 42t47.5 102q-102 0 -102 98q0 17 3 35q-10 0 -15 -3q-17 -18 -32.5 -72.5t-15.5 -108.5z" />
    <glyph glyph-name="ocircumflex" unicode="&#xf4;" horiz-adv-x="446" 
d="M226.5 652.5q82.5 51.5 116 51.5t78.5 -60t67 -105l-42 -36q-90 59 -139 80q-78 -23 -190 -82l-32 47q59 53 141.5 104.5zM188 -12q-78 0 -123 49.5t-45 139.5q0 110 65 186.5t171 76.5l45 -4q24 7 45 7q50 0 71.5 -34t24.5 -97q42 2 80 13l14 4q7 -7 10 -42l1 -11
q-45 -23 -110 -36q-22 -106 -87 -179t-162 -73zM208 181q0 -93 47 -93q33 0 67.5 42t47.5 102q-102 0 -102 98q0 17 3 35q-10 0 -15 -3q-17 -18 -32.5 -72.5t-15.5 -108.5z" />
    <glyph glyph-name="otilde" unicode="&#xf5;" horiz-adv-x="446" 
d="M372 528q-21 0 -87 16t-87.5 16t-35.5 -9.5t-28 -35.5l-52 12q14 151 116 151q22 0 87.5 -16t88.5 -16t34.5 7.5t23.5 29.5l50 -10q-14 -145 -110 -145zM188 -12q-78 0 -123 49.5t-45 139.5q0 110 65 186.5t171 76.5l45 -4q24 7 45 7q50 0 71.5 -34t24.5 -97q42 2 80 13
l14 4q7 -7 10 -42l1 -11q-45 -23 -110 -36q-22 -106 -87 -179t-162 -73zM208 181q0 -93 47 -93q33 0 67.5 42t47.5 102q-102 0 -102 98q0 17 3 35q-10 0 -15 -3q-17 -18 -32.5 -72.5t-15.5 -108.5z" />
    <glyph glyph-name="odieresis" unicode="&#xf6;" horiz-adv-x="446" 
d="M120 550q-21 20 -21 51.5t26 53t63 21.5t57.5 -17.5t20.5 -49.5t-25.5 -55.5t-62.5 -23.5t-58 20zM331 550q-21 20 -21 51.5t26 53t63 21.5t57.5 -17.5t20.5 -49.5t-25.5 -55.5t-62.5 -23.5t-58 20zM188 -12q-78 0 -123 49.5t-45 139.5q0 110 65 186.5t171 76.5l45 -4
q24 7 45 7q50 0 71.5 -34t24.5 -97q42 2 80 13l14 4q7 -7 10 -42l1 -11q-45 -23 -110 -36q-22 -106 -87 -179t-162 -73zM208 181q0 -93 47 -93q33 0 67.5 42t47.5 102q-102 0 -102 98q0 17 3 35q-10 0 -15 -3q-17 -18 -32.5 -72.5t-15.5 -108.5z" />
    <glyph glyph-name="divide" unicode="&#xf7;" horiz-adv-x="546" 
d="M67 232q0 60 9 92h411q0 -72 -6 -92h-414zM207 44.5q-17 17.5 -17 46.5t23 49.5t55 20.5t48.5 -17t16.5 -45t-23 -50t-54.5 -22t-48.5 17.5zM224 408.5q-17 17.5 -17 46.5t23 49.5t55 20.5t48.5 -17t16.5 -45t-23 -50t-54.5 -22t-48.5 17.5z" />
    <glyph glyph-name="oslash" unicode="&#xf8;" horiz-adv-x="444" 
d="M275 443h7q11 42 23 87h6q35 0 82 -30l-27 -79q69 -38 69 -135q0 -51 -21.5 -107.5t-66.5 -106t-101 -66.5q-17 -62 -23 -88h-18t-53 10l-19 7l22 66q-62 11 -98.5 57t-36.5 120q0 109 67.5 187t187.5 78zM196.5 295.5q-25.5 -69.5 -25.5 -122.5t17 -72q33 103 79 282
q-45 -18 -70.5 -87.5zM331.5 184q23.5 57 23.5 99t-12 68q-38 -115 -73 -249q38 25 61.5 82z" />
    <glyph glyph-name="ugrave" unicode="&#xf9;" horiz-adv-x="542" 
d="M239 696q46 0 259 -149l-26 -48q-146 52 -309 91q36 106 76 106zM61.5 219q26.5 96 26.5 118t-36 64l2 15q91 20 213 20q8 -17 8 -54t-27.5 -140t-27.5 -122q0 -26 25 -26q17 0 43 13q3 16 18 84q35 151 35 226q46 20 157 20h27q0 -45 -26.5 -176t-27 -151t8.5 -20l49 13
l18 -50q-29 -23 -84 -44t-97 -21q-62 0 -77 50q-83 -50 -159 -50q-95 0 -95 93q0 42 26.5 138z" />
    <glyph glyph-name="uacute" unicode="&#xfa;" horiz-adv-x="542" 
d="M516 614q0 -35 -37 -51q-56 -26 -260 -62l-17 50q123 60 274 156q11 -15 25.5 -47t14.5 -46zM61.5 219q26.5 96 26.5 118t-36 64l2 15q91 20 213 20q8 -17 8 -54t-27.5 -140t-27.5 -122q0 -26 25 -26q17 0 43 13q3 16 18 84q35 151 35 226q46 20 157 20h27
q0 -45 -26.5 -176t-27 -151t8.5 -20l49 13l18 -50q-29 -23 -84 -44t-97 -21q-62 0 -77 50q-83 -50 -159 -50q-95 0 -95 93q0 42 26.5 138z" />
    <glyph glyph-name="ucircumflex" unicode="&#xfb;" horiz-adv-x="542" 
d="M275.5 652.5q82.5 51.5 116 51.5t78.5 -60t67 -105l-42 -36q-90 59 -139 80q-78 -23 -190 -82l-32 47q59 53 141.5 104.5zM61.5 219q26.5 96 26.5 118t-36 64l2 15q91 20 213 20q8 -17 8 -54t-27.5 -140t-27.5 -122q0 -26 25 -26q17 0 43 13q3 16 18 84q35 151 35 226
q46 20 157 20h27q0 -45 -26.5 -176t-27 -151t8.5 -20l49 13l18 -50q-29 -23 -84 -44t-97 -21q-62 0 -77 50q-83 -50 -159 -50q-95 0 -95 93q0 42 26.5 138z" />
    <glyph glyph-name="udieresis" unicode="&#xfc;" horiz-adv-x="542" 
d="M389 550q-21 20 -21 51.5t26 53t63 21.5t57.5 -17.5t20.5 -49.5t-25.5 -55.5t-62.5 -23.5t-58 20zM178 550q-21 20 -21 51.5t26 53t63 21.5t57.5 -17.5t20.5 -49.5t-25.5 -55.5t-62.5 -23.5t-58 20zM61.5 219q26.5 96 26.5 118t-36 64l2 15q91 20 213 20q8 -17 8 -54
t-27.5 -140t-27.5 -122q0 -26 25 -26q17 0 43 13q3 16 18 84q35 151 35 226q46 20 157 20h27q0 -45 -26.5 -176t-27 -151t8.5 -20l49 13l18 -50q-29 -23 -84 -44t-97 -21q-62 0 -77 50q-83 -50 -159 -50q-95 0 -95 93q0 42 26.5 138z" />
    <glyph glyph-name="yacute" unicode="&#xfd;" horiz-adv-x="505" 
d="M489 614q0 -35 -37 -51q-56 -26 -260 -62l-17 50q123 60 274 156q11 -15 25.5 -47t14.5 -46zM499 436h8q-5 -26 -17 -112q-27 -196 -60 -304.5t-93 -176t-160 -67.5q-43 0 -74.5 21.5t-31.5 55.5t16.5 57t48.5 38q50 25 129 43q8 38 10 49q-78 -42 -150 -42
q-48 0 -71 25.5t-23 63.5t22 134.5t22 133.5t-5 55q118 25 183 25q8 -14 8 -49t-22.5 -136.5t-22.5 -119.5q0 -31 30 -31q17 0 39 9q8 51 22.5 155.5t20.5 143.5q26 12 78.5 20.5t92.5 8.5zM142 -127q2 -23 23.5 -23t46 21t39.5 60q-109 -19 -109 -58z" />
    <glyph glyph-name="thorn" unicode="&#xfe;" horiz-adv-x="483" 
d="M-27 -178q0 74 69 409t69 431q0 16 -5 41q99 31 186 31q5 -14 5 -37q0 -83 -42 -278q46 23 96 23t87.5 -42.5t37.5 -122.5q0 -126 -53 -207.5t-154 -81.5q-52 0 -98 18q-16 -109 -16 -200q-75 -25 -176 -30q-6 12 -6 46zM217 75q26 0 45 39q34 70 34 172q0 58 -29 58
q-12 0 -30 -6q-44 -204 -54 -257q22 -6 34 -6z" />
    <glyph glyph-name="ydieresis" unicode="&#xff;" horiz-adv-x="505" 
d="M361 550q-21 20 -21 51.5t26 53t63 21.5t57.5 -17.5t20.5 -49.5t-25.5 -55.5t-62.5 -23.5t-58 20zM150 550q-21 20 -21 51.5t26 53t63 21.5t57.5 -17.5t20.5 -49.5t-25.5 -55.5t-62.5 -23.5t-58 20zM499 436h8q-5 -26 -17 -112q-27 -196 -60 -304.5t-93 -176t-160 -67.5
q-43 0 -74.5 21.5t-31.5 55.5t16.5 57t48.5 38q50 25 129 43q8 38 10 49q-78 -42 -150 -42q-48 0 -71 25.5t-23 63.5t22 134.5t22 133.5t-5 55q118 25 183 25q8 -14 8 -49t-22.5 -136.5t-22.5 -119.5q0 -31 30 -31q17 0 39 9q8 51 22.5 155.5t20.5 143.5q26 12 78.5 20.5
t92.5 8.5zM142 -127q2 -23 23.5 -23t46 21t39.5 60q-109 -19 -109 -58z" />
    <glyph glyph-name="hbar" unicode="&#x127;" horiz-adv-x="549" 
d="M327 734q7 -17 7 -51.5t-8 -82.5h123q0 -50 -5 -75h-131q-16 -75 -30 -132q86 49 135.5 49t73.5 -26.5t24 -66t-22 -124t-22 -110.5t8 -26l52 14l18 -50q-31 -23 -85.5 -44t-96.5 -21q-81 0 -81 92q0 42 21 124t21 103.5t-15 21.5q-21 0 -51 -20q-45 -191 -45 -266l1 -24
q-102 -27 -183 -27q-6 3 -6 39.5t18 120.5t45.5 196.5t39.5 176.5h-90q0 53 5 75h97q4 44 4 65.5t-4 41.5q97 27 182 27z" />
    <glyph glyph-name="Itilde" unicode="&#x128;" horiz-adv-x="463" 
d="M418 640.5q32 -56.5 32 -151t-19.5 -184.5t-56 -167t-95.5 -126t-127.5 -49t-106.5 39.5t-38 102.5t62 134.5t187 119.5q10 60 10 122.5t-9 85.5t-36 23q-42 0 -125 -59l-38 52q128 114 246 114q82 0 114 -56.5zM84 114q0 -21 12.5 -37t32.5 -16q37 0 69 61t49 157
q-74 -27 -118.5 -76t-44.5 -89zM373 795q-21 0 -87 16t-87.5 16t-35.5 -9.5t-28 -35.5l-52 12q14 151 116 151q22 0 87.5 -16t88.5 -16t34.5 7.5t23.5 29.5l50 -10q-14 -145 -110 -145z" />
    <glyph glyph-name="itilde" unicode="&#x129;" horiz-adv-x="300" 
d="M271 530q-18 0 -71.5 15t-72 15t-31 -9.5t-24.5 -35.5l-49 12q13 149 104 149q19 0 70.5 -15t77.5 -15t43 37l47 -10q-11 -143 -94 -143zM244 238.5q-25 -92.5 -25 -120.5t11 -28t40 10l9 4l18 -50q-34 -26 -84.5 -46t-91.5 -20t-64.5 23t-23.5 66.5t24.5 133t24.5 113.5
q0 37 -26 70l-8 11l3 17q52 16 202 16q16 -18 16 -62.5t-25 -137z" />
    <glyph glyph-name="dotlessi" unicode="&#x131;" horiz-adv-x="300" 
d="M244 238.5q-25 -92.5 -25 -120.5t11 -28t40 10l9 4l18 -50q-34 -26 -84.5 -46t-91.5 -20t-64.5 23t-23.5 66.5t24.5 133t24.5 113.5q0 37 -26 70l-8 11l3 17q52 16 202 16q16 -18 16 -62.5t-25 -137z" />
    <glyph glyph-name="IJ" unicode="&#x132;" horiz-adv-x="873" 
d="M614 213q9 33 23 131.5t14 151t-10 73t-35 20.5q-47 0 -126 -58l-39 52q130 114 252 114q75 0 108.5 -53.5t33.5 -172.5t-17 -215q66 6 137 6q3 -12 3 -35t-20 -66q-41 7 -73 7t-66 -2q-43 -158 -123.5 -255t-176.5 -97q-62 0 -100.5 38.5t-38.5 103.5t62 135.5
t192 121.5zM418 640.5q32 -56.5 32 -151t-19.5 -184.5t-56 -167t-95.5 -126t-127.5 -49t-106.5 39.5t-38 102.5t62 134.5t187 119.5q10 60 10 122.5t-9 85.5t-36 23q-42 0 -125 -59l-38 52q128 114 246 114q82 0 114 -56.5zM437 -36q0 -24 13 -38t31 -14q38 0 71 61.5
t50 157.5q-74 -26 -119.5 -74t-45.5 -93zM84 114q0 -21 12.5 -37t32.5 -16q37 0 69 61t49 157q-74 -27 -118.5 -76t-44.5 -89z" />
    <glyph glyph-name="ij" unicode="&#x133;" horiz-adv-x="593" 
d="M314 -224q-103 0 -180 90l32 43q47 -32 83 -32t57 49t49 192.5t28 207.5q0 15 -10 34.5t-20 31.5l-10 12l2 16q76 18 214 18q17 -17 17 -64.5t-24.5 -182t-48.5 -227.5q-21 -94 -72 -141t-117 -47zM433.5 540q-25.5 24 -25.5 61.5t31.5 63t76.5 25.5t70 -21t25 -59
t-30.5 -66t-76 -28t-71 24zM122.5 540q-25.5 24 -25.5 61.5t31.5 63t76.5 25.5t70 -21t25 -59t-30.5 -66t-76 -28t-71 24zM244 238.5q-25 -92.5 -25 -120.5t11 -28t40 10l9 4l18 -50q-34 -26 -84.5 -46t-91.5 -20t-64.5 23t-23.5 66.5t24.5 133t24.5 113.5q0 37 -26 70
l-8 11l3 17q52 16 202 16q16 -18 16 -62.5t-25 -137z" />
    <glyph glyph-name="Jcircumflex" unicode="&#x134;" horiz-adv-x="434" 
d="M175 213q9 33 23 131.5t14 151t-10 73t-35 20.5q-47 0 -126 -58l-39 52q130 114 252 114q75 0 108.5 -53.5t33.5 -172.5t-17 -215q66 6 137 6q3 -12 3 -35t-20 -66q-41 7 -73 7t-66 -2q-43 -158 -123.5 -255t-176.5 -97q-62 0 -100.5 38.5t-38.5 103.5t62 135.5
t192 121.5zM165.5 919.5q82.5 51.5 116 51.5t78.5 -60t67 -105l-42 -36q-90 59 -139 80q-78 -23 -190 -82l-32 47q59 53 141.5 104.5zM-2 -36q0 -24 13 -38t31 -14q38 0 71 61.5t50 157.5q-74 -26 -119.5 -74t-45.5 -93z" />
    <glyph glyph-name="jcircumflex" unicode="&#x135;" horiz-adv-x="303" 
d="M237 704q22 0 65 -62t62 -103l-42 -36q-92 66 -122 80q-61 -20 -168 -82l-32 47q56 55 129.5 105.5t107.5 50.5zM11 -224q-92 0 -170 80l32 43q42 -27 77.5 -27t61 46t51.5 192t26 216q0 15 -10 34.5t-20 31.5l-10 12l2 16q70 18 208 18q17 -17 17 -66.5t-18 -164.5
t-40 -200q-61 -231 -207 -231z" />
    <glyph glyph-name="kcommaaccent" unicode="&#x137;" horiz-adv-x="538" 
d="M143 661q0 26 -5 46q99 27 180 27q10 -12 10 -53q0 -73 -45 -280q80 42 141.5 42t94 -25t32.5 -70q0 -87 -129 -124q32 -138 62 -138l48 13l22 -49q-25 -20 -77 -41t-100 -21t-73 36t-32 94t-7 130q48 12 76 34.5t28 45t-24 22.5q-19 0 -44.5 -11t-37.5 -21
q-54 -228 -54 -305q-77 -17 -183 -17q-1 8 -1 19q0 52 59 304.5t59 341.5zM338 -109q0 -72 -95 -169l-51 24q21 45 25 81l-63 55q12 30 35 56.5t45 30.5q41 0 72.5 -22t31.5 -56z" />
    <glyph glyph-name="kgreenlandic" unicode="&#x138;" horiz-adv-x="549" 
d="M352 282.5q28 22.5 28 45t-24 22.5q-19 0 -44.5 -11t-37.5 -21q-4 -19 -20 -89q-34 -149 -34 -216q-49 -19 -168 -19h-17q0 62 28.5 188t28.5 145t-9 37t-18 27l-9 9l2 15q59 19 206 19q9 -20 13 -43l15 9q78 43 141.5 43t96 -25t32.5 -70q0 -87 -129 -124
q32 -138 62 -138l48 13l22 -49q-25 -20 -77 -41t-100 -21t-73 36t-32 94t-7 130q48 12 76 34.5z" />
    <glyph glyph-name="Ldotaccent" unicode="&#x13f;" horiz-adv-x="506" 
d="M218 24q-59 -44 -118.5 -44t-92.5 29.5t-33 68t24 65t62 33.5q24 8 48.5 8t49.5 -6q10 48 17 127q-54 15 -88 49q-51 43 -51 121l6 54q10 1 38 1t54 -13q-1 -2 -1 -3l8 -3q-6 -27 -6 -55t13 -52q12 -14 33 -17q4 82 7 113q11 106 73.5 157t154.5 53h14q76 -1 121 -42.5
t45 -102.5q0 -75 -76 -151t-186 -106q-29 -134 -47 -190q21 -14 56.5 -40t56.5 -41q71 -49 113 -49t70 8l3 -4h1q21 -25 29 -44l-3 -5l3 -8q-19 -40 -59 -70.5t-90 -30.5t-98 37.5t-108 103.5zM412.5 136.5q-19.5 21.5 -19.5 56t26.5 60t62 25.5t54 -21t18.5 -54.5
t-27.5 -60.5t-61 -27t-53 21.5zM454 616h-4q-48 0 -77 -136q-5 -16 -19 -81q67 23 101.5 69t34.5 93q0 23 -9.5 38.5t-26.5 16.5zM91 123l-6 -1q-20 -8 -20 -29t14 -27q28 0 56 40q-23 17 -44 17z" />
    <glyph glyph-name="ldot" unicode="&#x140;" horiz-adv-x="424" 
d="M312.5 314q-18.5 20 -18.5 52t25 54.5t59.5 22.5t52.5 -19t18 -50.5t-24.5 -55.5t-59 -24t-53 20zM216 8q-52 -20 -94.5 -20t-69.5 24.5t-27 70.5t50.5 256.5t50.5 312.5q0 22 -6 56q94 26 182 26q9 -16 9 -52q0 -68 -50.5 -296.5t-50.5 -263.5t12 -35q10 0 43 13l11 5
l24 -49q-32 -28 -84 -48z" />
    <glyph glyph-name="Lslash" unicode="&#x141;" horiz-adv-x="506" 
d="M453.5 1.5q32.5 -13.5 67 -13.5t62.5 8q22 -31 33 -61q-19 -40 -59 -70.5t-90 -30.5t-98 37.5t-108 103.5l-43 49q-56 -44 -117 -44t-94 29.5t-33 70.5t32 70t72.5 29t76.5 -11q3 12 7 36q-36 -4 -79 -12l-4 51q64 12 91 16l6 52q-140 32 -140 164l6 54q10 1 38 1t54 -13
q-6 -27 -6 -42q0 -79 53 -88q4 82 7 113q11 108 75.5 159t150 51t130.5 -41.5t45 -110t-75.5 -143.5t-186.5 -105l-9 -39q17 1 60 1t73 -6q3 -9 3 -18q0 -21 -15 -49q-43 12 -118 12h-18q-14 -56 -28 -102q77 -53 111.5 -73.5t67 -34zM490 561q0 25 -10.5 40t-28.5 15
q-34 0 -54 -35.5t-37 -112.5l-15 -72q71 22 108 69.5t37 95.5zM135 106q-23 17 -42 17t-29 -10t-10 -21q0 -26 26.5 -26t54.5 40z" />
    <glyph glyph-name="lslash" unicode="&#x142;" horiz-adv-x="377" 
d="M304 460l89 36q8 -12 17.5 -35.5t10.5 -34.5q-15 -6 -34.5 -13t-48 -17.5t-51.5 -18.5q-49 -218 -49 -254t12 -36q10 0 43 13l11 5l24 -49q-32 -28 -84 -48t-94.5 -20t-69.5 24.5t-27 70.5t45 234l-69 -30q-21 29 -30 72q15 6 57 22l63 24q35 158 35 247q0 22 -6 56
q94 26 182 26q9 -16 9 -64t-35 -210z" />
    <glyph glyph-name="Nacute" unicode="&#x143;" horiz-adv-x="817" 
d="M319 697q94 0 121 -90q45 33 68 48t71.5 35t99 20t85.5 -31.5t35 -89.5t-43 -229.5t-43 -237.5q0 -29 15 -29q17 0 47 12l21 -51q-92 -66 -181 -66q-47 0 -72.5 26t-25.5 76t41.5 220.5t41.5 219t-37 48.5t-111 -50q2 -28 2 -43q0 -144 -39.5 -264t-108.5 -189t-152 -69
q-62 0 -99.5 40t-37.5 115t65 177t187 208q0 50 -8.5 69t-26.5 19q-43 0 -129 -62l-40 50q47 45 117.5 81.5t136.5 36.5zM95 122q0 -27 12 -44t31 -17q48 0 86.5 98.5t45.5 249.5q-73 -62 -124 -145.5t-51 -141.5zM734 881q0 -35 -37 -51q-56 -26 -260 -62l-17 50
q123 60 274 156q11 -15 25.5 -47t14.5 -46z" />
    <glyph glyph-name="nacute" unicode="&#x144;" horiz-adv-x="554" 
d="M503 614q0 -35 -37 -51q-56 -26 -260 -62l-17 50q123 60 274 156q11 -15 25.5 -47t14.5 -46zM52 -6h-17q0 62 28.5 188t28.5 145t-9 37t-18 27l-9 9l2 15q59 19 206 19q10 -23 14 -48q91 56 153 56q42 0 66 -27.5t24 -66t-22 -123.5t-22 -110.5t7 -25.5l53 14l18 -50
q-32 -24 -83.5 -44.5t-94.5 -20.5q-85 0 -85 88q0 38 21 124t21 107.5t-14 21.5q-18 0 -48 -20q-4 -18 -20 -87q-32 -145 -32 -209q-49 -19 -168 -19z" />
    <glyph glyph-name="OE" unicode="&#x152;" horiz-adv-x="886" 
d="M907 680q-33 0 -62 -9q45 -35 45 -89t-30.5 -96t-75.5 -42t-72 28t-27 73.5t22 84.5q-73 -26 -73 -141q0 -53 16 -95q38 4 55 4q61 0 94.5 -20.5t33.5 -55.5t-26.5 -60.5t-81 -25.5t-120.5 39q-36 -45 -36 -87t25.5 -67t69 -25t95 31.5t86.5 71.5l43 -36
q-127 -174 -290 -175q-104 0 -168 51q-65 -51 -146 -51q-115 0 -183.5 76.5t-68.5 199.5q0 127 64 242q72 128 180 178q59 27 126 27q88 0 147 -50q68 49 165 49q28 0 63 -7q67 44 149.5 44t116.5 -41q-2 -35 -22 -58l-7 -8q-37 40 -107 40zM515 355q-49 67 -49 136.5
t29 113.5q-29 31 -75 31t-85 -44.5t-61 -111.5q-45 -137 -45 -265q0 -152 82 -152q42 0 75 33q-14 30 -14 68q0 124 143 191zM811 564q0 46 -33 63q-22 -30 -22 -74t23 -44q14 0 23 15.5t9 39.5zM746.5 333.5q-10.5 6.5 -28 6.5t-38.5 -9q23 -32 50 -32t27 18
q0 10 -10.5 16.5z" />
    <glyph glyph-name="oe" unicode="&#x153;" horiz-adv-x="754" 
d="M251 443q46 0 76 -15q12 3 38 3t44 -23t19 -51q81 86 201 86q61 0 101 -25.5t40 -77.5q0 -38 -23.5 -68.5t-56.5 -46.5q-70 -33 -124 -40l-24 -3q0 -45 19 -72t58 -27q23 0 47.5 9.5t37.5 18.5l13 9l30 -47q-11 -10 -30 -24t-74.5 -37.5t-113.5 -23.5t-98.5 30.5
t-54.5 75.5q-80 -106 -188 -106q-74 0 -121 48t-47 147t64 179.5t167 80.5zM257 88q27 0 55.5 30.5t44.5 73.5q-91 9 -91 116q0 31 4 53q-4 2 -15 2q-5 -3 -15.5 -23t-21 -62t-10.5 -88q0 -102 49 -102zM603 281.5q24 27.5 24 62.5t-26.5 35t-42 -43t-15.5 -91q36 9 60 36.5
z" />
    <glyph glyph-name="Racute" unicode="&#x154;" horiz-adv-x="673" 
d="M341 364q14 8 35 8t37 -8q72 56 72 157q0 64 -38 93.5t-118 29.5q-124 0 -209 -38.5t-85 -94.5q0 -23 19.5 -37t40.5 -18q1 -9 1 -22q0 -54 -18 -80q-47 6 -85 41t-38 101q0 104 115.5 165t294.5 61q143 0 226 -50t83 -146q0 -68 -52.5 -122t-126.5 -89q36 -35 100 -194
t100 -159q7 0 19 4l19 -53q-59 -40 -132.5 -40t-106 32t-55.5 132q-4 17 -13 63q-23 109 -37 155h-17q-26 0 -44 21q-8 6 -8 31.5t3.5 37t17.5 19.5zM151 487q0 19 -4.5 28t-19.5 26v12q20 12 65 21.5t79 9.5q55 0 73 -5q6 -10 6 -41t-51.5 -229.5t-60.5 -297.5
q-72 -17 -162 -17q-24 0 -33 3q5 62 56.5 247t51.5 243zM531 881q0 -35 -37 -51q-56 -26 -260 -62l-17 50q123 60 274 156q11 -15 25.5 -47t14.5 -46z" />
    <glyph glyph-name="Rcommaaccent" unicode="&#x156;" horiz-adv-x="673" 
d="M341 364q14 8 35 8t37 -8q72 56 72 157q0 64 -38 93.5t-118 29.5q-124 0 -209 -38.5t-85 -94.5q0 -23 19.5 -37t40.5 -18q1 -9 1 -22q0 -54 -18 -80q-47 6 -85 41t-38 101q0 104 115.5 165t294.5 61q143 0 226 -50t83 -146q0 -68 -52.5 -122t-126.5 -89q36 -35 100 -194
t100 -159q7 0 19 4l19 -53q-59 -40 -132.5 -40t-106 32t-55.5 132q-4 17 -13 63q-23 109 -37 155h-17q-26 0 -44 21q-8 6 -8 31.5t3.5 37t17.5 19.5zM151 487q0 19 -4.5 28t-19.5 26v12q20 12 65 21.5t79 9.5q55 0 73 -5q6 -10 6 -41t-51.5 -229.5t-60.5 -297.5
q-72 -17 -162 -17q-24 0 -33 3q5 62 56.5 247t51.5 243zM409 -104q0 -84 -101 -173l-51 25q20 44 25 84l-63 55q12 31 36.5 60t45.5 33q40 0 74 -25t34 -59z" />
    <glyph glyph-name="rcommaaccent" unicode="&#x157;" horiz-adv-x="392" 
d="M49 -6h-8q-3 14 -3 43.5t24.5 152.5t24.5 140q0 32 -27 60l-9 10l2 15q60 19 199 19q13 -25 16 -59q60 68 105 68q35 0 53 -23.5t21 -77.5q-5 -7 -14.5 -17.5t-40 -29t-63.5 -22.5q-1 0 -13.5 22t-19.5 22t-33 -20l-11 -57q-29 -143 -29 -192l1 -37q-44 -17 -175 -17z
M213 -109q0 -72 -95 -169l-51 24q21 45 25 81l-63 55q12 30 35 56.5t45 30.5q41 0 72.5 -22t31.5 -56z" />
    <glyph glyph-name="Rcaron" unicode="&#x158;" horiz-adv-x="673" 
d="M341 364q14 8 35 8t37 -8q72 56 72 157q0 64 -38 93.5t-118 29.5q-124 0 -209 -38.5t-85 -94.5q0 -23 19.5 -37t40.5 -18q1 -9 1 -22q0 -54 -18 -80q-47 6 -85 41t-38 101q0 104 115.5 165t294.5 61q143 0 226 -50t83 -146q0 -68 -52.5 -122t-126.5 -89q36 -35 100 -194
t100 -159q7 0 19 4l19 -53q-59 -40 -132.5 -40t-106 32t-55.5 132q-4 17 -13 63q-23 109 -37 155h-17q-26 0 -44 21q-8 6 -8 31.5t3.5 37t17.5 19.5zM151 487q0 19 -4.5 28t-19.5 26v12q20 12 65 21.5t79 9.5q55 0 73 -5q6 -10 6 -41t-51.5 -229.5t-60.5 -297.5
q-72 -17 -162 -17q-24 0 -33 3q5 62 56.5 247t51.5 243zM460.5 822.5q-89.5 -49.5 -117.5 -49.5t-77 57.5t-71 94.5l49 47q78 -54 132 -76q109 35 190 78l37 -56q-53 -46 -142.5 -95.5z" />
    <glyph glyph-name="rcaron" unicode="&#x159;" horiz-adv-x="392" 
d="M49 -6h-8q-3 14 -3 43.5t24.5 152.5t24.5 140q0 32 -27 60l-9 10l2 15q60 19 199 19q13 -25 16 -59q60 68 105 68q35 0 53 -23.5t21 -77.5q-5 -7 -14.5 -17.5t-40 -29t-63.5 -22.5q-1 0 -13.5 22t-19.5 22t-33 -20l-11 -57q-29 -143 -29 -192l1 -37q-44 -17 -175 -17z
M200 504q-28 0 -112 167l34 31q4 -3 16 -14t16.5 -15t14.5 -13t16 -13l15 -10q19 -14 30 -18q63 20 159 87l28 -40q-45 -50 -119 -106t-98 -56z" />
    <glyph glyph-name="dotlessj" unicode="&#x237;" horiz-adv-x="298" 
d="M13 -224q-87 0 -155 70l27 43q32 -19 67 -19t60 46.5t51 193t26 216.5q0 15 -10 34.5t-20 31.5l-10 12l2 16q72 18 210 18q15 -17 15 -66.5t-18 -164.5t-40 -200q-61 -231 -205 -231z" />
    <glyph glyph-name="circumflex" unicode="&#x2c6;" horiz-adv-x="583" 
d="M230.5 652.5q82.5 51.5 116 51.5t78.5 -60t67 -105l-42 -36q-90 59 -139 80q-78 -23 -190 -82l-32 47q59 53 141.5 104.5z" />
    <glyph glyph-name="caron" unicode="&#x2c7;" horiz-adv-x="626" 
d="M386.5 555.5q-89.5 -49.5 -117.5 -49.5t-77 57.5t-71 94.5l49 47q78 -54 132 -76q109 35 190 78l37 -56q-53 -46 -142.5 -95.5z" />
    <glyph glyph-name="ring" unicode="&#x2da;" horiz-adv-x="458" 
d="M152 547.5q-31 31.5 -31 80t31 79t89 30.5t89 -30.5t31 -79t-31 -80t-89 -31.5t-89 31.5zM196 627q0 -19 12 -31t33 -12q41 0 41 43t-41 43q-21 0 -33 -12t-12 -31z" />
    <glyph glyph-name="tilde" unicode="&#x2dc;" horiz-adv-x="605" 
d="M390 528q-21 0 -87 16t-87.5 16t-35.5 -9.5t-28 -35.5l-52 12q14 151 116 151q22 0 87.5 -16t88.5 -16t34.5 7.5t23.5 29.5l50 -10q-14 -145 -110 -145z" />
    <glyph glyph-name="dotaccentcmb" unicode="&#x307;" horiz-adv-x="388" 
d="M141.5 748q-20.5 20 -20.5 53.5t27.5 57t65 23.5t57.5 -19.5t20 -53t-27 -57.5t-64.5 -24t-58 20z" />
    <glyph glyph-name="endash" unicode="&#x2013;" horiz-adv-x="583" 
d="M51 239q0 57 3 92h489q0 -29 -3 -92h-489z" />
    <glyph glyph-name="emdash" unicode="&#x2014;" horiz-adv-x="984" 
d="M61 239q0 38 3 92h880q0 -50 -3 -92h-880z" />
    <glyph glyph-name="quoteleft" unicode="&#x2018;" horiz-adv-x="301" 
d="M90 518q0 45 40 114.5t73 102.5l54 -29q-39 -61 -49 -117l72 -50q0 -38 -20 -73.5t-52 -58.5q-118 19 -118 111z" />
    <glyph glyph-name="quoteright" unicode="&#x2019;" horiz-adv-x="305" 
d="M291 624q0 -45 -40 -114.5t-73 -102.5l-54 29q39 61 49 117l-72 50q0 38 20 73.5t52 58.5q118 -19 118 -111z" />
    <glyph glyph-name="quotesinglbase" unicode="&#x201a;" horiz-adv-x="307" 
d="M254 45q0 -45 -40 -114.5t-73 -102.5l-54 29q39 61 49 117l-72 50q0 38 20 73.5t52 58.5q118 -19 118 -111z" />
    <glyph glyph-name="quotedblleft" unicode="&#x201c;" horiz-adv-x="515" 
d="M304 518q0 45 40 114.5t73 102.5l54 -29q-42 -65 -51 -117l74 -50q0 -38 -20 -73.5t-52 -58.5q-118 19 -118 111zM90 518q0 45 40 114.5t73 102.5l54 -29q-42 -65 -51 -117l74 -50q0 -38 -20 -73.5t-52 -58.5q-118 19 -118 111z" />
    <glyph glyph-name="quotedblright" unicode="&#x201d;" horiz-adv-x="519" 
d="M291 624q0 -45 -40 -114.5t-73 -102.5l-54 29q39 61 49 117l-72 50q0 38 20 73.5t52 58.5q118 -19 118 -111zM505 624q0 -45 -40 -114.5t-73 -102.5l-54 29q39 61 49 117l-72 50q0 38 20 73.5t52 58.5q118 -19 118 -111z" />
    <glyph glyph-name="quotedblbase" unicode="&#x201e;" horiz-adv-x="520" 
d="M254 49q0 -45 -40 -114.5t-73 -102.5l-54 29q39 61 49 117l-72 50q0 38 20 73.5t52 58.5q118 -19 118 -111zM468 49q0 -45 -40 -114.5t-73 -102.5l-54 29q39 61 49 117l-72 50q0 38 20 73.5t52 58.5q118 -19 118 -111z" />
    <glyph glyph-name="bullet" unicode="&#x2022;" horiz-adv-x="452" 
d="M134 222q-37 39 -37 100t42 102t104.5 41t99 -37.5t36.5 -97t-42.5 -103.5t-104 -44t-98.5 39z" />
    <glyph glyph-name="guilsinglleft" unicode="&#x2039;" horiz-adv-x="347" 
d="M139 194.5q-70 70.5 -70 95t67 88.5t142 124l46 -41q-78 -111 -105 -166q25 -69 76 -159l-45 -41q-41 29 -111 99.5z" />
    <glyph glyph-name="guilsinglright" unicode="&#x203a;" horiz-adv-x="358" 
d="M239 400.5q70 -70.5 70 -95t-67 -88.5t-142 -124l-46 41q78 111 105 166q-25 69 -76 159l45 41q41 -29 111 -99.5z" />
    <glyph glyph-name="Euro" unicode="&#x20ac;" horiz-adv-x="620" 
d="M330 -12q-96 0 -161 65.5t-76 179.5q-60 -5 -82 -9q-2 25 -2 44.5t3 41.5h80q1 16 5 53q-28 -2 -65 -7q-3 14 -3 35t4 51h83q38 120 124 194t190.5 74t166.5 -39t62 -99.5t-34 -96.5q-40 0 -92 16t-78 39l19 97q-18 10 -44 10q-39 0 -74.5 -54t-53.5 -141h214
q-2 -29 -14 -64l-5 -13q-55 5 -105 5t-102 -2q-3 -29 -3 -58h212q-2 -22 -18 -64l-5 -13q-53 5 -95 5t-61.5 -0.5t-29.5 -0.5q9 -70 38 -104t71 -34q70 0 154 74l47 -47q-10 -15 -42 -43.5t-61.5 -46.5t-75 -33t-91.5 -15z" />
    </font>
</defs>
</svg>
